<!--?xml version="1.0" encoding="utf-8"?-->
<!-- Generator: Adobe Illustrator 22.1.0, SVG Export Plug-In . SVG Version: 6.00 Build 0)  -->
<svg version="1.1" id="_x30_" xmlns="http://www.w3.org/2000/svg" xmlns:xlink="http://www.w3.org/1999/xlink" x="0px" y="0px" viewBox="0 0 800 226.193" style="enable-background:new 0 0 800 226.193;" xml:space="preserve">
<style type="text/css">
	.st0{fill:#231815;}
</style>
<g>
	<g>
		<path class="st0" d="M331.091,225.628c0,0-18.484-82.211-18.484-160.971H311l-0.804-58.869l-3.616-0.202l-10.648,1.409V5.587
			h-4.621v-2.61l-6.629-2.412l-6.631,2.412v2.61h-4.621v1.409L262.78,5.587l-3.617,0.202l-0.803,58.869h-1.607
			c0,78.76-18.484,160.971-18.484,160.971H331.091z"></path>
		<path class="st0" d="M232.04,123.928l-0.403-4.621l-3.682-0.507v-0.722l-1.22-0.813l-1.727,0.101v1.03l-9.443-1.3l-15.07,1.205
			v5.023h-1.607v9.845l-1.607,0.403v92.056h35.963v-101.7H232.04z M203.109,122.989l-1.407,0.066v-3.749l1.407-0.152V122.989z"></path>
		<path class="st0" d="M380.515,225.628V81.935c0,0,7.635,0,9.246,0c1.604,0,6.024,5.894,7.232,5.76
			c1.204-0.135,14.866-0.937,15.805-0.937c0.937,0,1.338,0.266,2.277,0.536c0.939,0.266,12.59,2.276,12.59,2.276
			s1.074,0.402,1.074,1.072c0,0.669,0,134.986,0,134.986H380.515z"></path>
		<path class="st0" d="M432.352,225.628v-121.19c0,0,7.634,0,9.242,0c1.607,0,6.027,5.892,7.232,5.76
			c1.205-0.135,14.871-0.939,15.807-0.939c0.937,0,1.337,0.268,2.276,0.537c0.94,0.267,18.216,2.277,18.216,2.277
			s1.073,0.403,1.073,1.071c0,0.671,0,112.484,0,112.484H432.352z"></path>
		<path class="st0" d="M490.215,225.628V120.511c0,0,7.634,0,9.242,0c1.607,0,6.027,5.894,7.233,5.761
			c1.203-0.135,14.869-0.938,15.806-0.938c0.934,0,1.336,0.268,2.275,0.536c0.939,0.267,12.592,2.275,12.592,2.275
			s1.071,0.405,1.071,1.073c0,0.67,0,96.41,0,96.41H490.215z"></path>
		<path class="st0" d="M654.965,225.628c0,0-5.089-133.675,29.199-146.534c-0.268,0.269,5.359,0,5.359,0
			s32.411-9.107,29.733,146.534C710.951,225.628,654.965,225.628,654.965,225.628z"></path>
		<polygon class="st0" points="141.696,225.628 141.696,158.149 158.305,155.738 176.52,159.222 176.52,225.628 		"></polygon>
		<polygon class="st0" points="343.95,225.628 343.95,118.502 349.977,118.502 349.977,114.885 362.835,114.885 391.364,121.717 
			391.364,225.628 		"></polygon>
		<polygon class="st0" points="238.269,225.628 238.269,136.423 239.742,136.02 239.742,127.581 241.617,127.313 241.617,118.473 
			247.243,118.473 247.243,112.178 267.601,111.911 267.601,118.34 272.423,118.34 272.423,127.181 274.835,127.983 274.835,136.02 
			276.844,136.825 276.844,225.628 		"></polygon>
		<polygon class="st0" points="163.528,225.628 163.528,151.693 219.383,146.869 249.118,154.102 249.118,225.628 		"></polygon>
		<rect x="479.366" y="164.149" class="st0" width="19.688" height="61.478"></rect>
		<rect x="421.904" y="142.852" class="st0" width="19.69" height="82.775"></rect>
		<path class="st0" d="M341.538,165.297v-1.953l-2.947-0.67l-2.812,0.267v1.657l-2.591-0.317l-0.088-2.276l-2.143-0.67l-0.439,0.058
			v-0.691l0.007-0.007l-0.007-0.005v-1.193l0.037-0.003v-1.741l-0.804-0.269l-0.736,0.202v1.774l0.102,0.01v2.105l-1.241,0.162
			v2.329l-5.223,0.483v3.483l-3.885,0.937v56.659h26.521v-59.873L341.538,165.297z M329.348,159.907l0.343,0.315l-0.343,0.318
			V159.907z M329.853,160.371l0.365,0.337l-0.365,0.336l-0.366-0.336L329.853,160.371z M329.691,161.193l-0.343,0.318v-0.635
			L329.691,161.193z M329.853,161.341l0.13,0.121l-0.304,0.04L329.853,161.341z M330.264,161.427l-0.251-0.234l0.276-0.254v0.484
			L330.264,161.427z M330.013,160.222l0.276-0.254v0.51L330.013,160.222z M329.685,159.528l0.604-0.026v0.169l-0.436,0.403
			l-0.493-0.454l-0.012,0.015v-0.142L329.685,159.528z"></path>
		<polygon class="st0" points="580.09,146.869 580.09,145.06 578.951,145.06 578.951,143.453 577.881,143.453 577.881,140.374 
			575.604,140.374 575.604,138.565 569.444,138.565 569.444,137.093 553.437,137.093 553.069,137.093 553.069,135.822 
			553.84,135.822 553.84,134.278 548.012,134.278 548.012,135.822 548.782,135.822 548.782,137.093 537.43,137.093 537.43,138.565 
			531.268,138.565 531.268,140.374 528.993,140.374 528.993,143.453 527.92,143.453 527.92,145.06 526.784,145.06 526.784,146.869 
			523.167,147.27 523.167,225.628 583.708,225.628 583.708,147.27 		"></polygon>
		<polygon class="st0" points="580.225,157.317 600.516,156.714 608.754,159.528 608.754,225.628 580.225,225.628 		"></polygon>
		<polygon class="st0" points="607.451,170.726 621.613,170.726 627.842,172.535 627.842,225.628 607.451,225.628 		"></polygon>
		<rect x="620.808" y="177.812" class="st0" width="56.66" height="47.816"></rect>
		<path class="st0" d="M177.861,189.062h-5.358v2.143l-33.218-17.681l-2.151,0.068v-2.411l-1.004-0.102l-0.502,0.302l-1.232-0.2
			v-0.253c0,0-0.476-0.653-0.476-1.028h-0.176c0,0,0-3.894,0-4.044c0-0.151,0.251-0.577,0.251-0.577v-0.126
			c0,0-0.302-0.605-0.302-0.679v-1.707h-0.377v1.707c0,0.074-0.3,0.679-0.3,0.679v0.126c0,0,0.249,0.426,0.249,0.577
			c0,0.151,0,4.044,0,4.044h-0.174c0,0.375-0.477,1.028-0.477,1.028v0.253l-1.232,0.2l-0.501-0.302l-1.005,0.102v2.641l-3.591,0.111
			v-1.949l-1.005-0.1l-0.502,0.3l-1.231-0.2v-0.25c0,0-0.477-0.655-0.477-1.029h-0.176c0,0,0-3.895,0-4.045
			c0-0.151,0.251-0.577,0.251-0.577v-0.126c0,0-0.3-0.602-0.3-0.676v-1.711h-0.377v1.711c0,0.074-0.301,0.676-0.301,0.676v0.126
			c0,0,0.251,0.427,0.251,0.577c0,0.15,0,4.045,0,4.045h-0.176c0,0.375-0.477,1.029-0.477,1.029v0.25l-1.23,0.2l-0.503-0.3
			l-1.004,0.1v2.18l-5.199,0.167v-1.945l-1.003-0.1l-0.503,0.301l-1.231-0.202v-0.253c0,0-0.476-0.651-0.476-1.027h-0.177
			c0,0,0-3.894,0-4.046c0-0.15,0.251-0.577,0.251-0.577v-0.126c0,0-0.302-0.602-0.302-0.679v-1.707h-0.377v1.707
			c0,0.076-0.3,0.679-0.3,0.679v0.126c0,0,0.251,0.427,0.251,0.577c0,0.152,0,4.046,0,4.046h-0.175c0,0.376-0.478,1.027-0.478,1.027
			v0.253l-1.231,0.202l-0.501-0.301l-1.006,0.1v2.172l-2.486,0.078v-1.246l-1.003-0.101l-0.503,0.301l-1.231-0.2v-0.251
			c0,0-0.477-0.654-0.477-1.03h-0.176c0,0,0-3.894,0-4.044c0-0.151,0.251-0.578,0.251-0.578v-0.125c0,0-0.302-0.603-0.302-0.677
			v-1.708h-0.377v1.708c0,0.074-0.3,0.677-0.3,0.677v0.125c0,0,0.251,0.427,0.251,0.578c0,0.149,0,4.044,0,4.044h-0.175
			c0,0.376-0.478,1.03-0.478,1.03v0.251l-1.231,0.2l-0.501-0.301l-1.006,0.101v1.475l-3.088,0.097v-1.772l-1.005-0.101l-0.501,0.301
			l-1.231-0.2v-0.253c0,0-0.478-0.651-0.478-1.029h-0.175c0,0,0-3.89,0-4.041c0-0.153,0.251-0.58,0.251-0.58v-0.125
			c0,0-0.3-0.602-0.3-0.677v-1.708h-0.377v1.708c0,0.076-0.302,0.677-0.302,0.677v0.125c0,0,0.251,0.427,0.251,0.58
			c0,0.151,0,4.041,0,4.041h-0.176c0,0.378-0.476,1.029-0.476,1.029v0.253l-1.23,0.2l-0.503-0.301l-1.004,0.101v2.813h0.376
			L61.063,190.67v-6.162l-5.627-1.071l-7.232,0.267v41.925h132.871v-34.692L177.861,189.062z"></path>
		<path class="st0" d="M599.166,100.214v-0.755h-0.107v-0.897h-0.496v0.897h-0.533v-4.201h-0.941v0.416h-3.587v-6.881h-0.946v6.881
			h-3.208v-0.416h-0.945v0.416v0.585v3.2h-0.671v-0.897h-0.499v0.897h-0.056v0.755h1.226v2.078h-0.671v-0.897h-0.499v0.897h-0.056
			v0.754h1.226v2.643h-0.671v-0.896h-0.499v0.896h-0.056v0.756h1.226v2.785h-0.671v-0.896h-0.499v0.896h-0.056v0.755h1.226v3.469
			v0.425v3.35v0.427v3.54v0.425v3.445v0.424v3.257v0.424v3.54v0.425v3.352v0.424v3.256v0.426v3.54v0.424v3.445v0.427v3.446v0.423
			v3.54v0.423v7.152h0.945v-6.733l3.208,2.931v3.802h0.946v-3.706l0.047,0.058l3.54-3.246v6.893h0.941v-53.428h1.135v-0.755h-0.107
			v-0.896h-0.496v0.896h-0.533v-2.785h1.135v-0.756h-0.107v-0.896h-0.496v0.896h-0.533v-2.643h1.135v-0.754h-0.107v-0.897h-0.496
			v0.897h-0.533v-2.078H599.166z M597.09,155.836h-3.587v-0.095l0.047,0.058l3.54-3.244V155.836z M597.09,117.227h-3.375l3.375-3.09
			V117.227z M593.818,113.453l3.272-2.998v2.998H593.818z M593.503,129.169h3.142l-3.142,2.882V129.169z M593.503,125.488h3.142
			l-3.142,2.883V125.488z M593.503,125.063L593.503,125.063L593.503,125.063L593.503,125.063z M593.503,121.619h3.142l-3.142,2.882
			V121.619z M592.557,124.343l-2.983-2.724h2.983V124.343z M592.557,128.214l-2.983-2.726h2.983V128.214z M592.557,131.896
			l-2.983-2.727h2.983V131.896z M593.503,140.592h3.142l-3.142,2.882V140.592z M593.503,136.91h3.142l-3.142,2.882V136.91z
			 M593.503,133.134h3.142l-3.142,2.883V133.134z M592.557,135.86l-2.983-2.726h2.983V135.86z M592.557,139.633l-2.983-2.723h2.983
			V139.633z M592.557,143.315l-2.983-2.723h2.983V143.315z M593.503,152.296h3.142l-3.142,2.882V152.296z M593.503,151.873
			L593.503,151.873L593.503,151.873L593.503,151.873z M593.503,148.427h3.142l-3.142,2.881V148.427z M593.503,148.001
			L593.503,148.001L593.503,148.001L593.503,148.001z M593.503,144.556h3.142l-3.142,2.883V144.556z M592.557,147.28l-2.983-2.724
			h2.983V147.28z M592.557,151.151l-2.983-2.724h2.983V151.151z M592.557,155.021l-2.983-2.724h2.983V155.021z M597.09,151.873
			h-3.479l3.479-3.189V151.873z M597.09,148.001h-3.479l3.479-3.187V148.001z M597.09,144.131h-3.587v-0.095l0.047,0.055l3.54-3.244
			V144.131z M597.09,140.166h-3.272l3.272-2.998V140.166z M597.09,136.486h-3.375l3.375-3.094V136.486z M597.09,132.709h-3.587
			v-0.095l0.047,0.059l3.54-3.244V132.709z M597.09,128.745h-3.272l3.272-2.998V128.745z M597.09,125.063h-3.479l3.479-3.188
			V125.063z M593.503,96.259h3.587v3.2h-1.163c0.127-0.155,0.209-0.373,0.209-0.614c0-0.47-0.301-0.85-0.672-0.85
			c-0.374,0-0.673,0.381-0.673,0.85c0,0.241,0.078,0.459,0.209,0.614h-1.496V96.259z M593.503,100.214h3.587v2.078h-1.163
			c0.127-0.155,0.209-0.372,0.209-0.614c0-0.468-0.301-0.849-0.672-0.849c-0.374,0-0.673,0.381-0.673,0.849
			c0,0.242,0.078,0.46,0.209,0.614h-1.496V100.214z M593.503,103.046h3.587v2.643h-1.163c0.127-0.153,0.209-0.372,0.209-0.613
			c0-0.469-0.301-0.85-0.672-0.85c-0.374,0-0.673,0.381-0.673,0.85c0,0.241,0.078,0.46,0.209,0.613h-1.496V103.046z
			 M593.503,106.444h3.587v2.785h-1.163c0.127-0.155,0.209-0.372,0.209-0.613c0-0.47-0.301-0.85-0.672-0.85
			c-0.374,0-0.673,0.38-0.673,0.85c0,0.241,0.078,0.458,0.209,0.613h-1.496V106.444z M593.503,109.984h3.374l-3.374,3.095V109.984z
			 M593.503,113.877h3.142l-3.142,2.883V113.877z M593.503,117.654h3.142l-3.142,2.882V117.654z M593.55,121.155l3.54-3.244v3.282
			h-3.587v-0.095L593.55,121.155z M592.557,120.378l-2.983-2.724h2.983V120.378z M592.557,116.604l-2.983-2.726h2.983V116.604z
			 M589.349,96.259h3.208v3.2h-1.107c0.131-0.155,0.212-0.373,0.212-0.614c0-0.47-0.3-0.85-0.672-0.85
			c-0.373,0-0.676,0.381-0.676,0.85c0,0.241,0.082,0.459,0.212,0.614h-1.177V96.259z M589.349,100.214h3.208v2.078h-1.107
			c0.131-0.155,0.212-0.372,0.212-0.614c0-0.468-0.3-0.849-0.672-0.849c-0.373,0-0.676,0.381-0.676,0.849
			c0,0.242,0.082,0.46,0.212,0.614h-1.177V100.214z M589.349,103.046h3.208v2.643h-1.107c0.131-0.153,0.212-0.372,0.212-0.613
			c0-0.469-0.3-0.85-0.672-0.85c-0.373,0-0.676,0.381-0.676,0.85c0,0.241,0.082,0.46,0.212,0.613h-1.177V103.046z M589.349,106.444
			h3.208v2.785h-1.107c0.131-0.155,0.212-0.372,0.212-0.613c0-0.47-0.3-0.85-0.672-0.85c-0.373,0-0.676,0.38-0.676,0.85
			c0,0.241,0.082,0.458,0.212,0.613h-1.177V106.444z M589.349,109.984h3.208v2.939l-3.208-2.931V109.984z M589.349,110.614
			l3.109,2.839h-3.109V110.614z M589.349,114.295l3.208,2.93v0.002h-3.208V114.295z M589.349,118.072l3.208,2.93v0.192h-3.208
			V118.072z M589.349,122.036l3.208,2.931v0.096h-3.208V122.036z M589.349,125.907l3.109,2.838h-3.109V125.907z M589.349,129.589
			l3.208,2.929v0.192h-3.208V129.589z M589.349,133.553l3.208,2.929v0.005h-3.208V133.553z M589.349,137.328l3.109,2.838h-3.109
			V137.328z M589.349,141.008l3.208,2.932v0.192h-3.208V141.008z M589.349,144.974l3.208,2.931v0.096h-3.208V144.974z
			 M589.349,148.844l3.208,2.931v0.098h-3.208V148.844z M589.349,152.714l3.208,2.931v0.192h-3.208V152.714z M589.574,156.259h2.983
			v2.728L589.574,156.259z M593.503,159.143v-2.884h3.142L593.503,159.143z"></path>
		<path class="st0" d="M637.396,162.555v-0.234h-0.02v-0.283h-0.097v0.283h-0.105v-1.316h-0.183v0.132h-0.702v-2.151h-0.183v2.151
			h-0.627v-0.132h-0.185v0.132v0.184v1h-0.131v-0.283h-0.098v0.283h-0.01v0.234h0.239v0.651h-0.131v-0.283h-0.098v0.283h-0.01v0.234
			h0.239v0.828h-0.131v-0.281h-0.098v0.281h-0.01v0.236h0.239v0.869h-0.131v-0.281h-0.098v0.281h-0.01v0.238h0.239v1.082v0.133
			v1.047v0.135v1.106v0.132v1.075v0.135v1.017v0.135v1.106v0.131v1.047v0.135v1.017v0.132v1.106v0.133v1.077v0.133v1.078v0.129
			v1.108v0.133v2.233h0.185V180.2l0.627,0.916v1.187h0.183v-1.158l0.011,0.019l0.69-1.016v2.155h0.183V165.61h0.221v-0.238h-0.02
			v-0.281h-0.097v0.281h-0.105v-0.869h0.221v-0.236h-0.02v-0.281h-0.097v0.281h-0.105v-0.828h0.221v-0.234h-0.02v-0.283h-0.097
			v0.283h-0.105v-0.651H637.396z M636.991,179.938h-0.702v-0.031l0.011,0.019l0.69-1.014V179.938z M636.991,167.871h-0.661
			l0.661-0.964V167.871z M636.352,166.691l0.639-0.936v0.936H636.352z M636.289,171.606h0.615l-0.615,0.898V171.606z
			 M636.289,170.454h0.615l-0.615,0.901V170.454z M636.289,170.319L636.289,170.319L636.289,170.319L636.289,170.319z
			 M636.289,169.245h0.615l-0.615,0.901V169.245z M636.106,170.096l-0.584-0.852h0.584V170.096z M636.106,171.306l-0.584-0.852
			h0.584V171.306z M636.106,172.453l-0.584-0.847h0.584V172.453z M636.289,175.173h0.615l-0.615,0.9V175.173z M636.289,174.024
			h0.615l-0.615,0.899V174.024z M636.289,172.842h0.615l-0.615,0.899V172.842z M636.106,173.694l-0.584-0.852h0.584V173.694z
			 M636.106,174.874l-0.584-0.85h0.584V174.874z M636.106,176.024l-0.584-0.852h0.584V176.024z M636.289,178.829h0.615l-0.615,0.903
			V178.829z M636.289,178.7L636.289,178.7L636.289,178.7L636.289,178.7z M636.289,177.622h0.615l-0.615,0.899V177.622z
			 M636.289,177.488L636.289,177.488L636.289,177.488L636.289,177.488z M636.289,176.412h0.615l-0.615,0.901V176.412z
			 M636.106,177.264l-0.584-0.852h0.584V177.264z M636.106,178.472l-0.584-0.85h0.584V178.472z M636.106,179.682l-0.584-0.853h0.584
			V179.682z M636.991,178.7h-0.679l0.679-0.998V178.7z M636.991,177.488h-0.679l0.679-0.996V177.488z M636.991,176.279h-0.702
			v-0.028l0.011,0.019l0.69-1.016V176.279z M636.991,175.041h-0.639l0.639-0.937V175.041z M636.991,173.889h-0.661l0.661-0.966
			V173.889z M636.991,172.712h-0.702v-0.03l0.011,0.015l0.69-1.012V172.712z M636.991,171.471h-0.639l0.639-0.937V171.471z
			 M636.991,170.319h-0.679l0.679-0.992V170.319z M636.289,161.321h0.702v1h-0.229c0.027-0.051,0.041-0.117,0.041-0.192
			c0-0.147-0.058-0.267-0.131-0.267c-0.074,0-0.132,0.119-0.132,0.267c0,0.074,0.017,0.141,0.041,0.192h-0.293V161.321z
			 M636.289,162.555h0.702v0.651h-0.229c0.027-0.05,0.041-0.117,0.041-0.192c0-0.148-0.058-0.267-0.131-0.267
			c-0.074,0-0.132,0.119-0.132,0.267c0,0.075,0.017,0.142,0.041,0.192h-0.293V162.555z M636.289,163.44h0.702v0.828h-0.229
			c0.027-0.05,0.041-0.118,0.041-0.192c0-0.146-0.058-0.265-0.131-0.265c-0.074,0-0.132,0.119-0.132,0.265
			c0,0.074,0.017,0.142,0.041,0.192h-0.293V163.44z M636.289,164.503h0.702v0.869h-0.229c0.027-0.048,0.041-0.115,0.041-0.192
			c0-0.146-0.058-0.267-0.131-0.267c-0.074,0-0.132,0.121-0.132,0.267c0,0.077,0.017,0.144,0.041,0.192h-0.293V164.503z
			 M636.289,165.61h0.661l-0.661,0.965V165.61z M636.289,166.825h0.615l-0.615,0.9V166.825z M636.289,168.006h0.615l-0.615,0.9
			V168.006z M636.301,169.098l0.69-1.012v1.027h-0.702v-0.03L636.301,169.098z M636.106,168.857l-0.584-0.85h0.584V168.857z
			 M636.106,167.678l-0.584-0.854h0.584V167.678z M635.479,161.321h0.627v1h-0.217c0.025-0.051,0.041-0.117,0.041-0.192
			c0-0.147-0.057-0.267-0.133-0.267c-0.07,0-0.13,0.119-0.13,0.267c0,0.074,0.015,0.141,0.041,0.192h-0.23V161.321z
			 M635.479,162.555h0.627v0.651h-0.217c0.025-0.05,0.041-0.117,0.041-0.192c0-0.148-0.057-0.267-0.133-0.267
			c-0.07,0-0.13,0.119-0.13,0.267c0,0.075,0.015,0.142,0.041,0.192h-0.23V162.555z M635.479,163.44h0.627v0.828h-0.217
			c0.025-0.05,0.041-0.118,0.041-0.192c0-0.146-0.057-0.265-0.133-0.265c-0.07,0-0.13,0.119-0.13,0.265
			c0,0.074,0.015,0.142,0.041,0.192h-0.23V163.44z M635.479,164.503h0.627v0.869h-0.217c0.025-0.048,0.041-0.115,0.041-0.192
			c0-0.146-0.057-0.267-0.133-0.267c-0.07,0-0.13,0.121-0.13,0.267c0,0.077,0.015,0.144,0.041,0.192h-0.23V164.503z M635.479,165.61
			h0.627v0.917l-0.627-0.916V165.61z M635.479,165.805l0.606,0.886h-0.606V165.805z M635.479,166.955l0.627,0.916l0,0h-0.627
			V166.955z M635.479,168.135l0.627,0.915v0.062h-0.627V168.135z M635.479,169.375l0.627,0.914v0.03h-0.627V169.375z
			 M635.479,170.585l0.606,0.886h-0.606V170.585z M635.479,171.735l0.627,0.915v0.062h-0.627V171.735z M635.479,172.973l0.627,0.916
			l0,0h-0.627V172.973z M635.479,174.155l0.606,0.886h-0.606V174.155z M635.479,175.303l0.627,0.916v0.06h-0.627V175.303z
			 M635.479,176.541l0.627,0.917v0.03h-0.627V176.541z M635.479,177.751l0.627,0.917v0.031h-0.627V177.751z M635.479,178.96
			l0.627,0.918v0.06h-0.627V178.96z M635.522,180.07h0.584v0.852L635.522,180.07z M636.289,180.968v-0.898h0.615L636.289,180.968z"></path>
		<path class="st0" d="M646.844,162.555v-0.234h-0.021v-0.283h-0.095v0.283h-0.105v-1.316h-0.184v0.132h-0.7v-2.151h-0.183v2.151
			h-0.628v-0.132h-0.183v0.132v0.184v1h-0.135v-0.283h-0.097v0.283h-0.011v0.234h0.243v0.651h-0.135v-0.283h-0.097v0.283h-0.011
			v0.234h0.243v0.828h-0.135v-0.281h-0.097v0.281h-0.011v0.236h0.243v0.869h-0.135v-0.281h-0.097v0.281h-0.011v0.238h0.243v1.082
			v0.133v1.047v0.135v1.106v0.132v1.075v0.135v1.017v0.135v1.106v0.131v1.047v0.135v1.017v0.132v1.106v0.133v1.077v0.133v1.078
			v0.129v1.108v0.133v2.233h0.183V180.2l0.628,0.916v1.187h0.183v-1.158l0.01,0.019l0.69-1.016v2.155h0.184V165.61h0.222v-0.238
			h-0.021v-0.281h-0.095v0.281h-0.105v-0.869h0.222v-0.236h-0.021v-0.281h-0.095v0.281h-0.105v-0.828h0.222v-0.234h-0.021v-0.283
			h-0.095v0.283h-0.105v-0.651H646.844z M646.438,179.938h-0.7v-0.031l0.01,0.019l0.69-1.014V179.938z M646.438,167.871h-0.659
			l0.659-0.964V167.871z M645.799,166.691l0.639-0.936v0.936H645.799z M645.738,171.606h0.614l-0.614,0.898V171.606z
			 M645.738,170.454h0.614l-0.614,0.901V170.454z M645.738,170.319L645.738,170.319L645.738,170.319L645.738,170.319z
			 M645.738,169.245h0.614l-0.614,0.901V169.245z M645.555,170.096l-0.584-0.852h0.584V170.096z M645.555,171.306l-0.584-0.852
			h0.584V171.306z M645.555,172.453l-0.584-0.847h0.584V172.453z M645.738,175.173h0.614l-0.614,0.9V175.173z M645.738,174.024
			h0.614l-0.614,0.899V174.024z M645.738,172.842h0.614l-0.614,0.899V172.842z M645.555,173.694l-0.584-0.852h0.584V173.694z
			 M645.555,174.874l-0.584-0.85h0.584V174.874z M645.555,176.024l-0.584-0.852h0.584V176.024z M645.738,178.829h0.614l-0.614,0.903
			V178.829z M645.738,178.7L645.738,178.7L645.738,178.7L645.738,178.7z M645.738,177.622h0.614l-0.614,0.899V177.622z
			 M645.738,177.488L645.738,177.488L645.738,177.488L645.738,177.488z M645.738,176.412h0.614l-0.614,0.901V176.412z
			 M645.555,177.264l-0.584-0.852h0.584V177.264z M645.555,178.472l-0.584-0.85h0.584V178.472z M645.555,179.682l-0.584-0.853h0.584
			V179.682z M646.438,178.7h-0.679l0.679-0.998V178.7z M646.438,177.488h-0.679l0.679-0.996V177.488z M646.438,176.279h-0.7v-0.028
			l0.01,0.019l0.69-1.016V176.279z M646.438,175.041h-0.639l0.639-0.937V175.041z M646.438,173.889h-0.659l0.659-0.966V173.889z
			 M646.438,172.712h-0.7v-0.03l0.01,0.015l0.69-1.012V172.712z M646.438,171.471h-0.639l0.639-0.937V171.471z M646.438,170.319
			h-0.679l0.679-0.992V170.319z M645.738,161.321h0.7v1h-0.226c0.025-0.051,0.04-0.117,0.04-0.192c0-0.147-0.06-0.267-0.131-0.267
			c-0.074,0-0.134,0.119-0.134,0.267c0,0.074,0.017,0.141,0.04,0.192h-0.289V161.321z M645.738,162.555h0.7v0.651h-0.226
			c0.025-0.05,0.04-0.117,0.04-0.192c0-0.148-0.06-0.267-0.131-0.267c-0.074,0-0.134,0.119-0.134,0.267
			c0,0.075,0.017,0.142,0.04,0.192h-0.289V162.555z M645.738,163.44h0.7v0.828h-0.226c0.025-0.05,0.04-0.118,0.04-0.192
			c0-0.146-0.06-0.265-0.131-0.265c-0.074,0-0.134,0.119-0.134,0.265c0,0.074,0.017,0.142,0.04,0.192h-0.289V163.44z
			 M645.738,164.503h0.7v0.869h-0.226c0.025-0.048,0.04-0.115,0.04-0.192c0-0.146-0.06-0.267-0.131-0.267
			c-0.074,0-0.134,0.121-0.134,0.267c0,0.077,0.017,0.144,0.04,0.192h-0.289V164.503z M645.738,165.61h0.659l-0.659,0.965V165.61z
			 M645.738,166.825h0.614l-0.614,0.9V166.825z M645.738,168.006h0.614l-0.614,0.9V168.006z M645.748,169.098l0.69-1.012v1.027h-0.7
			v-0.03L645.748,169.098z M645.555,168.857l-0.584-0.85h0.584V168.857z M645.555,167.678l-0.584-0.854h0.584V167.678z
			 M644.927,161.321h0.628v1h-0.216c0.025-0.051,0.04-0.117,0.04-0.192c0-0.147-0.06-0.267-0.132-0.267
			c-0.071,0-0.129,0.119-0.129,0.267c0,0.074,0.015,0.141,0.041,0.192h-0.232V161.321z M644.927,162.555h0.628v0.651h-0.216
			c0.025-0.05,0.04-0.117,0.04-0.192c0-0.148-0.06-0.267-0.132-0.267c-0.071,0-0.129,0.119-0.129,0.267
			c0,0.075,0.015,0.142,0.041,0.192h-0.232V162.555z M644.927,163.44h0.628v0.828h-0.216c0.025-0.05,0.04-0.118,0.04-0.192
			c0-0.146-0.06-0.265-0.132-0.265c-0.071,0-0.129,0.119-0.129,0.265c0,0.074,0.015,0.142,0.041,0.192h-0.232V163.44z
			 M644.927,164.503h0.628v0.869h-0.216c0.025-0.048,0.04-0.115,0.04-0.192c0-0.146-0.06-0.267-0.132-0.267
			c-0.071,0-0.129,0.121-0.129,0.267c0,0.077,0.015,0.144,0.041,0.192h-0.232V164.503z M644.927,165.61h0.628v0.917l-0.628-0.916
			V165.61z M644.927,165.805l0.606,0.886h-0.606V165.805z M644.927,166.955l0.628,0.916l0,0h-0.628V166.955z M644.927,168.135
			l0.628,0.915v0.062h-0.628V168.135z M644.927,169.375l0.628,0.914v0.03h-0.628V169.375z M644.927,170.585l0.606,0.886h-0.606
			V170.585z M644.927,171.735l0.628,0.915v0.062h-0.628V171.735z M644.927,172.973l0.628,0.916l0,0h-0.628V172.973z
			 M644.927,174.155l0.606,0.886h-0.606V174.155z M644.927,175.303l0.628,0.916v0.06h-0.628V175.303z M644.927,176.541l0.628,0.917
			v0.03h-0.628V176.541z M644.927,177.751l0.628,0.917v0.031h-0.628V177.751z M644.927,178.96l0.628,0.918v0.06h-0.628V178.96z
			 M644.971,180.07h0.584v0.852L644.971,180.07z M645.738,180.968v-0.898h0.614L645.738,180.968z"></path>
		<polygon class="st0" points="722.274,155.71 729.707,153.299 736.941,156.113 736.941,160.532 754.621,162.942 754.621,225.628 
			716.85,225.628 716.85,162.942 722.274,161.336 		"></polygon>
		<polygon class="st0" points="58.793,225.628 2.536,225.628 2,200.984 27.181,195.627 58.793,198.84 		"></polygon>
		<path class="st0" d="M753.196,184.643v-0.001c-0.088,0-0.172,0.001-0.257,0.001c-0.085,0-0.166-0.001-0.253-0.001v0.001
			c-24.603,0.056-36.717,4.085-44.806,6.109v2.545h1.526v32.332h43.28h0.509h43.278v-32.332H798v-2.545
			C789.909,188.729,777.798,184.699,753.196,184.643z"></path>
	</g>
	<g>
		<g>
			<path class="st0" d="M430.49,157.074c-9.242-9.128-14.96-21.745-14.96-35.679l0,0c0-13.934,5.718-26.552,14.96-35.682l0,0
				c9.242-9.13,22.013-14.777,36.115-14.777l0,0c14.1,0,26.869,5.648,36.113,14.777l0,0c9.24,9.13,14.958,21.748,14.958,35.682l0,0
				c0,13.934-5.718,26.552-14.958,35.679l0,0c-9.244,9.133-22.013,14.778-36.113,14.778l0,0
				C452.503,171.853,439.732,166.207,430.49,157.074L430.49,157.074z M430.922,86.151c-9.131,9.021-14.777,21.479-14.777,35.244l0,0
				c0,13.763,5.646,26.222,14.777,35.243l0,0c9.133,9.021,21.746,14.6,35.683,14.6l0,0c13.937,0,26.55-5.579,35.678-14.6l0,0
				c9.134-9.021,14.779-21.48,14.779-35.243l0,0c0-13.765-5.646-26.222-14.779-35.244l0,0c-9.128-9.023-21.741-14.601-35.678-14.601
				l0,0C452.668,71.55,440.055,77.129,430.922,86.151L430.922,86.151z"></path>
			<path class="st0" d="M430.25,157.391c-9.093-9.018-14.72-21.48-14.72-35.245l0,0c0-13.765,5.627-26.228,14.72-35.246l0,0
				c9.095-9.02,21.658-14.599,35.535-14.599l0,0c13.876,0,26.44,5.579,35.533,14.599l0,0c9.093,9.019,14.72,21.481,14.72,35.246l0,0
				c0,13.765-5.627,26.227-14.72,35.245l0,0c-9.093,9.019-21.658,14.6-35.533,14.6l0,0
				C451.908,171.991,439.345,166.41,430.25,157.391L430.25,157.391z M430.683,87.335c-8.982,8.911-14.538,21.215-14.538,34.81l0,0
				c0,13.596,5.556,25.899,14.538,34.81l0,0c8.984,8.91,21.391,14.42,35.102,14.42l0,0c13.708,0,26.118-5.51,35.1-14.42l0,0
				c8.982-8.911,14.54-21.215,14.54-34.81l0,0c0-13.595-5.558-25.9-14.54-34.81l0,0c-8.982-8.911-21.392-14.42-35.1-14.42l0,0
				C452.074,72.915,439.667,78.425,430.683,87.335L430.683,87.335z"></path>
			<polygon class="st0" points="464.814,71.346 465.22,71.314 468.991,119.673 468.581,119.705 464.814,71.346 			"></polygon>
			<polygon class="st0" points="464.814,71.34 465.223,71.319 467.763,119.406 467.354,119.426 464.814,71.34 			"></polygon>
			<polygon class="st0" points="468.456,120.993 482.919,73.912 483.311,74.033 468.845,121.114 468.456,120.993 			"></polygon>
			<polygon class="st0" points="467.364,120.715 482.921,73.908 483.311,74.038 467.754,120.844 467.364,120.715 			"></polygon>
			<polygon class="st0" points="447.176,74.88 447.546,74.702 469.515,120.693 469.148,120.868 447.176,74.88 			"></polygon>
			<polygon class="st0" points="446.766,75.012 447.138,74.844 467.746,120.697 467.371,120.864 446.766,75.012 			"></polygon>
			<polygon class="st0" points="432.069,84.628 432.357,84.334 468.655,119.816 468.371,120.108 432.069,84.628 			"></polygon>
			<polygon class="st0" points="432.066,85.306 432.36,85.019 468.115,121.729 467.821,122.016 432.066,85.306 			"></polygon>
			<polygon class="st0" points="468.218,120.243 498.923,82.441 499.241,82.699 468.537,120.499 468.218,120.243 			"></polygon>
			<polygon class="st0" points="467.458,121.012 510.769,96.789 510.97,97.147 467.658,121.369 467.458,121.012 			"></polygon>
			<polygon class="st0" points="468.003,120.192 509.083,97.402 509.279,97.761 468.203,120.549 468.003,120.192 			"></polygon>
			<polygon class="st0" points="421.215,99.544 421.38,99.167 466.822,119.091 466.658,119.466 421.215,99.544 			"></polygon>
			<polygon class="st0" points="421.075,100.087 421.248,99.715 469.009,121.55 468.839,121.922 421.075,100.087 			"></polygon>
			<polygon class="st0" points="415.686,117.71 415.716,117.3 468.12,121.26 468.09,121.667 415.686,117.71 			"></polygon>
			<polygon class="st0" points="415.964,117.574 415.984,117.164 467.297,119.895 467.275,120.304 415.964,117.574 			"></polygon>
			<polygon class="st0" points="418.23,136.28 466.54,120.313 466.668,120.702 418.357,136.67 418.23,136.28 			"></polygon>
			<polygon class="st0" points="417.958,136.961 467.222,120.723 467.35,121.112 418.086,137.352 417.958,136.961 			"></polygon>
			<polygon class="st0" points="427.716,153.646 467.156,121.304 467.415,121.62 427.977,153.965 427.716,153.646 			"></polygon>
			<polygon class="st0" points="443.362,165.988 468.198,120.274 468.558,120.469 443.723,166.185 443.362,165.988 			"></polygon>
			<polygon class="st0" points="468.619,120.624 468.956,120.392 497.221,161.382 496.882,161.615 468.619,120.624 			"></polygon>
			<polygon class="st0" points="467.39,120.898 467.725,120.664 496.382,161.466 496.048,161.7 467.39,120.898 			"></polygon>
			<polygon class="st0" points="467.702,120.203 516.932,113.755 516.985,114.161 467.755,120.609 467.702,120.203 			"></polygon>
			<polygon class="st0" points="468.417,121.225 515.396,114.575 515.452,114.979 468.473,121.632 468.417,121.225 			"></polygon>
			<polygon class="st0" points="468.462,120.161 468.564,119.764 516.345,131.823 516.244,132.219 468.462,120.161 			"></polygon>
			<polygon class="st0" points="468.599,121.252 468.702,120.856 516.189,132.695 516.092,133.091 468.599,121.252 			"></polygon>
			<polygon class="st0" points="469.249,120.472 469.483,120.136 509.502,148.281 509.268,148.617 469.249,120.472 			"></polygon>
			<polygon class="st0" points="467.856,122.043 468.082,121.703 508.989,148.995 508.761,149.336 467.856,122.043 			"></polygon>
			<polygon class="st0" points="461.283,171.455 467.525,120.38 467.933,120.431 461.687,171.503 461.283,171.455 			"></polygon>
			<polygon class="st0" points="461.692,171.349 468.448,121.027 468.854,121.081 462.098,171.404 461.692,171.349 			"></polygon>
			<polygon class="st0" points="468.588,120.557 468.985,120.458 481.234,169.484 480.835,169.585 468.588,120.557 			"></polygon>
			<polygon class="st0" points="467.838,121.276 468.233,121.173 480.822,169.277 480.426,169.382 467.838,121.276 			"></polygon>
			<g>
				<path class="st0" d="M471.45,120.507c0,1.471-1.191,2.663-2.663,2.663c-1.47,0-2.661-1.192-2.661-2.663
					c0-1.469,1.191-2.661,2.661-2.661C470.258,117.846,471.45,119.038,471.45,120.507z"></path>
				<path class="st0" d="M466.022,120.507c0-1.525,1.24-2.761,2.765-2.761l0,0c1.526,0,2.762,1.236,2.762,2.761l0,0
					c0,1.527-1.236,2.764-2.762,2.764l0,0C467.262,123.27,466.022,122.034,466.022,120.507L466.022,120.507z M466.227,120.507
					c0.005,1.415,1.147,2.557,2.56,2.561l0,0c1.412-0.004,2.556-1.146,2.557-2.561l0,0c-0.001-1.412-1.146-2.555-2.557-2.558l0,0
					C467.374,117.952,466.232,119.095,466.227,120.507L466.227,120.507z"></path>
			</g>
			<polygon class="st0" points="443.747,190.378 466.738,119.28 468.787,120.585 447.432,190.378 			"></polygon>
			<polygon class="st0" points="494.707,190.378 470.075,119.772 468.242,121.164 491.281,190.378 			"></polygon>
			<polygon class="st0" points="467.935,121.104 469.363,121.005 474.44,192.281 473.01,192.384 467.935,121.104 			"></polygon>
			<polygon class="st0" points="460.321,192.258 467.801,119.889 469.225,120.037 461.748,192.406 460.321,192.258 			"></polygon>
			<polygon class="st0" points="457.021,155.896 457.063,155.283 465.763,155.898 465.722,156.511 457.021,155.896 			"></polygon>
			<polygon class="st0" points="465.407,156.105 480.865,154.773 480.916,155.383 465.46,156.714 465.407,156.105 			"></polygon>
			<polygon class="st0" points="469.896,154.358 469.982,153.75 480.831,155.285 480.746,155.894 469.896,154.358 			"></polygon>
			<polygon class="st0" points="456.702,155.285 469.905,153.748 469.974,154.359 456.77,155.894 456.702,155.285 			"></polygon>
			<polygon class="st0" points="459.486,145.356 459.511,144.741 470.872,145.15 470.847,145.765 459.486,145.356 			"></polygon>
			<polygon class="st0" points="471.209,145.258 477.349,144.031 477.471,144.633 471.33,145.861 471.209,145.258 			"></polygon>
			<polygon class="st0" points="469.598,143.818 469.663,143.207 477.443,144.027 477.379,144.636 469.598,143.818 			"></polygon>
			<polygon class="st0" points="460.168,144.643 469.585,143.21 469.676,143.816 460.262,145.249 460.168,144.643 			"></polygon>
			<polygon class="st0" points="463.774,133.28 464.232,132.867 478.663,148.833 478.204,149.245 463.774,133.28 			"></polygon>
			<polygon class="st0" points="455.873,156.228 472.864,132.891 473.359,133.253 456.37,156.59 455.873,156.228 			"></polygon>
			<polygon class="st0" points="455.534,155.735 455.89,155.238 490.483,179.904 490.128,180.403 455.534,155.735 			"></polygon>
			<polygon class="st0" points="447.635,180.938 481.102,153.103 481.496,153.574 448.028,181.415 447.635,180.938 			"></polygon>
			<polygon class="st0" points="449.235,176.27 476.457,144.441 476.927,144.839 449.705,176.669 449.235,176.27 			"></polygon>
			<polygon class="st0" points="459.475,146.48 459.932,146.07 488.383,177.695 487.927,178.106 459.475,146.48 			"></polygon>
			<polygon class="st0" points="439.212,78.971 439.545,78.732 451.007,94.698 450.676,94.939 439.212,78.971 			"></polygon>
			<polygon class="st0" points="438.8,79.377 439.137,79.146 450.294,95.626 449.953,95.854 438.8,79.377 			"></polygon>
			<polygon class="st0" points="450.642,94.862 451.041,94.775 453.191,104.704 452.791,104.789 450.642,94.862 			"></polygon>
			<polygon class="st0" points="449.925,95.782 450.325,95.696 452.168,104.396 451.767,104.482 449.925,95.782 			"></polygon>
			<polygon class="st0" points="450.006,95.907 450.243,95.571 458.637,101.508 458.399,101.843 450.006,95.907 			"></polygon>
			<polygon class="st0" points="450.728,94.988 450.953,94.647 459.346,100.174 459.121,100.515 450.728,94.988 			"></polygon>
			<polygon class="st0" points="458.825,101.756 459.952,91.214 460.359,91.258 459.234,101.8 458.825,101.756 			"></polygon>
			<polygon class="st0" points="459.543,101.551 460.772,90.293 461.178,90.337 459.949,101.595 459.543,101.551 			"></polygon>
			<polygon class="st0" points="460.801,90.427 461.147,90.204 466.877,99.005 466.534,99.228 460.801,90.427 			"></polygon>
			<polygon class="st0" points="459.993,91.363 460.315,91.11 467.011,99.564 466.689,99.819 459.993,91.363 			"></polygon>
			<polygon class="st0" points="455.454,72.552 455.85,72.461 460.355,91.804 459.955,91.895 455.454,72.552 			"></polygon>
			<polygon class="st0" points="455.967,72.662 456.361,72.554 461.173,90.261 460.775,90.369 455.967,72.662 			"></polygon>
			<polygon class="st0" points="470.904,91.617 473.769,71.709 474.176,71.768 471.31,91.674 470.904,91.617 			"></polygon>
			<polygon class="st0" points="466.734,99.218 471.954,90.365 472.305,90.572 467.086,99.426 466.734,99.218 			"></polygon>
			<polygon class="st0" points="471.927,90.449 473.769,71.719 474.176,71.759 472.334,90.49 471.927,90.449 			"></polygon>
			<polygon class="st0" points="471.78,90.475 472.172,90.359 475.192,100.748 474.799,100.863 471.78,90.475 			"></polygon>
			<polygon class="st0" points="470.91,91.7 471.303,91.59 474.015,101.468 473.621,101.577 470.91,91.7 			"></polygon>
			<polygon class="st0" points="482.288,94.005 491.088,77.681 491.449,77.874 482.647,94.2 482.288,94.005 			"></polygon>
			<polygon class="st0" points="474.555,100.495 482.334,93.944 482.6,94.258 474.819,100.81 474.555,100.495 			"></polygon>
			<polygon class="st0" points="481.548,103.756 482.417,94.033 482.824,94.07 481.954,103.793 481.548,103.756 			"></polygon>
			<polygon class="st0" points="480.42,105.332 481.855,94.741 482.261,94.795 480.826,105.386 480.42,105.332 			"></polygon>
			<polygon class="st0" points="425.854,91.406 426.084,91.067 442.564,102.223 442.334,102.562 425.854,91.406 			"></polygon>
			<polygon class="st0" points="442.404,102.591 442.494,102.193 453.037,104.547 452.947,104.948 442.404,102.591 			"></polygon>
			<polygon class="st0" points="452.07,105.873 452.07,104.438 452.478,104.438 452.478,105.873 452.07,105.873 			"></polygon>
			<polygon class="st0" points="441.891,103.616 441.984,103.217 452.323,105.673 452.228,106.072 441.891,103.616 			"></polygon>
			<polygon class="st0" points="442.282,102.508 442.616,102.275 448.962,111.487 448.624,111.72 442.282,102.508 			"></polygon>
			<polygon class="st0" points="425.545,91.862 425.783,91.53 442.059,103.249 441.816,103.583 425.545,91.862 			"></polygon>
			<polygon class="st0" points="441.77,103.532 442.105,103.299 448.347,112.356 448.013,112.589 441.77,103.532 			"></polygon>
			<polygon class="st0" points="437.515,112.595 448.772,111.399 448.815,111.807 437.557,113 437.515,112.595 			"></polygon>
			<polygon class="st0" points="417.836,108.221 417.932,107.822 437.586,112.599 437.489,112.997 417.836,108.221 			"></polygon>
			<polygon class="st0" points="437.352,113.854 437.586,113.517 446.589,119.796 446.356,120.131 437.352,113.854 			"></polygon>
			<polygon class="st0" points="417.627,108.628 417.733,108.232 437.521,113.487 437.417,113.883 417.627,108.628 			"></polygon>
			<polygon class="st0" points="437.444,113.481 448.159,112.27 448.204,112.677 437.492,113.889 437.444,113.481 			"></polygon>
			<polygon class="st0" points="437.427,112.971 437.645,112.625 447.268,118.766 447.045,119.11 437.427,112.971 			"></polygon>
			<polygon class="st0" points="437.165,124.082 447.06,118.758 447.254,119.118 437.358,124.442 437.165,124.082 			"></polygon>
			<polygon class="st0" points="436.96,124.899 446.376,119.782 446.573,120.142 437.157,125.26 436.96,124.899 			"></polygon>
			<polygon class="st0" points="437.214,124.46 437.313,124.062 448.505,126.929 448.401,127.324 437.214,124.46 			"></polygon>
			<polygon class="st0" points="437.006,125.277 437.11,124.882 447.416,127.61 447.31,128.008 437.006,125.277 			"></polygon>
			<polygon class="st0" points="416.019,127.47 437.034,124.876 437.082,125.283 416.067,127.875 416.019,127.47 			"></polygon>
			<polygon class="st0" points="416.356,126.924 437.235,124.058 437.29,124.464 416.41,127.33 416.356,126.924 			"></polygon>
			<polygon class="st0" points="440.636,135.594 447.554,127.451 447.864,127.715 440.948,135.86 440.636,135.594 			"></polygon>
			<polygon class="st0" points="421.731,145.698 440.695,135.548 440.889,135.906 421.925,146.061 421.731,145.698 			"></polygon>
			<polygon class="st0" points="440.88,135.506 452.19,133.611 452.259,134.016 440.948,135.907 440.88,135.506 			"></polygon>
			<polygon class="st0" points="440.636,135.606 451.945,134.378 451.988,134.786 440.68,136.012 440.636,135.606 			"></polygon>
			<polygon class="st0" points="448.447,144.803 451.876,134.365 452.263,134.49 448.836,144.931 448.447,144.803 			"></polygon>
			<polygon class="st0" points="448.039,145.211 451.876,133.696 452.262,133.827 448.427,145.341 448.039,145.211 			"></polygon>
			<polygon class="st0" points="434.871,160.906 448.484,144.582 448.799,144.844 435.186,161.17 434.871,160.906 			"></polygon>
			<polygon class="st0" points="448.535,144.691 458.515,138.653 458.725,139.003 448.746,145.041 448.535,144.691 			"></polygon>
			<polygon class="st0" points="458.467,138.984 458.876,138.979 459.028,150.953 458.619,150.96 458.467,138.984 			"></polygon>
			<polygon class="st0" points="457.751,140.12 458.16,140.095 458.824,151.047 458.414,151.071 457.751,140.12 			"></polygon>
			<polygon class="st0" points="458.456,150.937 465.62,141.469 465.949,141.715 458.782,151.183 458.456,150.937 			"></polygon>
			<polygon class="st0" points="465.646,141.921 466.028,141.775 469.916,151.958 469.534,152.105 465.646,141.921 			"></polygon>
			<polygon class="st0" points="465.752,141.728 466.124,141.56 470.782,151.999 470.407,152.166 465.752,141.728 			"></polygon>
			<polygon class="st0" points="469.635,152.37 473.834,141.008 474.217,141.152 470.019,152.512 469.635,152.37 			"></polygon>
			<polygon class="st0" points="469.528,151.971 472.855,141.172 473.247,141.293 469.92,152.091 469.528,151.971 			"></polygon>
			<polygon class="st0" points="469.521,152.049 469.93,152.015 471.567,171.255 471.158,171.29 469.521,152.049 			"></polygon>
			<polygon class="st0" points="470.392,152.091 470.8,152.076 471.567,171.266 471.158,171.28 470.392,152.091 			"></polygon>
			<polygon class="st0" points="473.879,141.225 474.167,140.934 482.252,149.021 481.964,149.31 473.879,141.225 			"></polygon>
			<polygon class="st0" points="479.807,138.076 480.216,138.045 481.087,149.407 480.676,149.438 479.807,138.076 			"></polygon>
			<polygon class="st0" points="472.906,141.376 473.199,141.091 481.027,149.28 480.734,149.563 472.906,141.376 			"></polygon>
			<polygon class="st0" points="481.035,137.458 481.443,137.435 482.059,149.258 481.649,149.279 481.035,137.458 			"></polygon>
			<polygon class="st0" points="480.596,149.311 480.961,149.124 489.761,166.114 489.4,166.299 480.596,149.311 			"></polygon>
			<polygon class="st0" points="481.664,149.148 482.04,148.979 489.766,166.124 489.394,166.291 481.664,149.148 			"></polygon>
			<polygon class="st0" points="480.744,137.838 480.916,137.466 490.895,142.122 490.722,142.494 480.744,137.838 			"></polygon>
			<polygon class="st0" points="484.893,133.137 485.262,132.955 490.121,142.781 489.755,142.961 484.893,133.137 			"></polygon>
			<polygon class="st0" points="479.926,138.554 480.097,138.182 490.025,142.685 489.854,143.058 479.926,138.554 			"></polygon>
			<polygon class="st0" points="486.324,132.668 486.696,132.503 490.995,142.226 490.621,142.392 486.324,132.668 			"></polygon>
			<polygon class="st0" points="490.662,142.452 490.955,142.165 503.902,155.317 503.609,155.603 490.662,142.452 			"></polygon>
			<polygon class="st0" points="489.796,143.017 490.081,142.723 503.592,155.877 503.305,156.17 489.796,143.017 			"></polygon>
			<polygon class="st0" points="486.195,132.687 486.212,132.276 496.804,132.687 496.788,133.096 486.195,132.687 			"></polygon>
			<polygon class="st0" points="487.904,126.233 488.189,125.938 495.915,133.41 495.631,133.706 487.904,126.233 			"></polygon>
			<polygon class="st0" points="485.373,133.302 485.393,132.891 495.783,133.354 495.764,133.764 485.373,133.302 			"></polygon>
			<polygon class="st0" points="489.383,125.615 489.675,125.33 496.941,132.749 496.65,133.036 489.383,125.615 			"></polygon>
			<polygon class="st0" points="496.71,133.078 496.882,132.707 513.411,140.433 513.238,140.803 496.71,133.078 			"></polygon>
			<polygon class="st0" points="495.69,133.744 495.856,133.37 513.255,141.046 513.088,141.421 495.69,133.744 			"></polygon>
			<polygon class="st0" points="489.46,125.28 498.616,121.902 498.762,122.285 489.6,125.664 489.46,125.28 			"></polygon>
			<polygon class="st0" points="488.272,118.596 488.434,118.222 497.799,122.315 497.634,122.691 488.272,118.596 			"></polygon>
			<polygon class="st0" points="489.079,117.518 489.262,117.152 498.78,121.911 498.599,122.278 489.079,117.518 			"></polygon>
			<polygon class="st0" points="498.831,122.298 498.857,121.891 517.124,122.964 517.102,123.372 498.831,122.298 			"></polygon>
			<polygon class="st0" points="497.4,122.81 497.422,122.403 517.275,123.372 517.257,123.782 497.4,122.81 			"></polygon>
			<polygon class="st0" points="488.372,118.255 496.762,110.835 497.034,111.142 488.641,118.563 488.372,118.255 			"></polygon>
			<polygon class="st0" points="485.173,111.604 485.189,111.194 495.984,111.551 495.971,111.961 485.173,111.604 			"></polygon>
			<polygon class="st0" points="486.393,110.425 486.422,110.017 496.913,110.785 496.883,111.194 486.393,110.425 			"></polygon>
			<polygon class="st0" points="496.837,110.794 514.697,105.165 514.821,105.556 496.961,111.185 496.837,110.794 			"></polygon>
			<polygon class="st0" points="495.912,111.563 514.693,105.167 514.825,105.555 496.044,111.95 495.912,111.563 			"></polygon>
			<polygon class="st0" points="491.296,101.055 505.675,89.44 505.932,89.758 491.553,101.374 491.296,101.055 			"></polygon>
			<polygon class="st0" points="486.381,110.28 491.245,101.119 491.605,101.311 486.743,110.473 486.381,110.28 			"></polygon>
			<polygon class="st0" points="485.208,111.243 491.247,101.11 491.6,101.319 485.561,111.454 485.208,111.243 			"></polygon>
			<polygon class="st0" points="480.818,105.267 490.849,101.994 490.975,102.383 480.943,105.657 480.818,105.267 			"></polygon>
			<polygon class="st0" points="481.74,104.039 491.362,101.02 491.484,101.411 481.863,104.43 481.74,104.039 			"></polygon>
			<polygon class="st0" points="427.327,110.689 430.179,102.96 430.371,103.031 427.518,110.76 427.327,110.689 			"></polygon>
			<polygon class="st0" points="426.218,117.978 427.415,110.892 427.615,110.927 426.419,118.012 426.218,117.978 			"></polygon>
			<polygon class="st0" points="426.215,117.999 426.419,117.991 426.698,125.814 426.494,125.821 426.215,117.999 			"></polygon>
			<polygon class="st0" points="426.495,125.841 426.693,125.792 428.718,133.89 428.521,133.941 426.495,125.841 			"></polygon>
			<polygon class="st0" points="428.345,133.687 428.527,133.592 432.298,140.677 432.117,140.772 428.345,133.687 			"></polygon>
			<polygon class="st0" points="428.342,133.684 428.528,133.596 431.932,140.866 431.747,140.952 428.342,133.684 			"></polygon>
			<polygon class="st0" points="432.122,140.784 432.294,140.667 436.342,146.743 436.172,146.855 432.122,140.784 			"></polygon>
			<polygon class="st0" points="431.585,141.241 431.752,141.125 435.913,147.061 435.746,147.179 431.585,141.241 			"></polygon>
			<polygon class="st0" points="436.505,146.848 436.654,146.708 441.909,152.37 441.76,152.512 436.505,146.848 			"></polygon>
			<polygon class="st0" points="435.758,147.193 435.903,147.045 441.838,152.915 441.695,153.06 435.758,147.193 			"></polygon>
			<polygon class="st0" points="441.709,153.071 441.824,152.901 448.305,157.2 448.192,157.371 441.709,153.071 			"></polygon>
			<polygon class="st0" points="441.982,152.8 442.096,152.63 448.307,156.858 448.192,157.029 441.982,152.8 			"></polygon>
			<polygon class="st0" points="448.415,157.04 448.494,156.85 455.657,159.852 455.577,160.042 448.415,157.04 			"></polygon>
			<polygon class="st0" points="448.21,157.382 448.287,157.192 455.656,160.122 455.582,160.314 448.21,157.382 			"></polygon>
			<polygon class="st0" points="455.596,159.911 455.64,159.712 463.078,161.417 463.032,161.617 455.596,159.911 			"></polygon>
			<polygon class="st0" points="455.596,160.32 455.64,160.121 463.146,161.825 463.102,162.026 455.596,160.32 			"></polygon>
			<polygon class="st0" points="463.048,161.618 463.062,161.413 470.77,161.893 470.758,162.096 463.048,161.618 			"></polygon>
			<polygon class="st0" points="462.918,162.096 462.921,161.89 470.972,162.096 470.969,162.299 462.918,162.096 			"></polygon>
			<polygon class="st0" points="470.683,161.757 478.667,160.662 478.694,160.865 470.713,161.958 470.683,161.757 			"></polygon>
			<polygon class="st0" points="470.954,162.096 478.801,160.871 478.832,161.07 470.987,162.299 470.954,162.096 			"></polygon>
			<polygon class="st0" points="478.639,160.671 485.191,157.943 485.271,158.13 478.718,160.861 478.639,160.671 			"></polygon>
			<polygon class="st0" points="478.779,160.875 485.532,158.01 485.613,158.2 478.856,161.066 478.779,160.875 			"></polygon>
			<polygon class="st0" points="485.522,158.016 492.071,154.329 492.173,154.509 485.624,158.193 485.522,158.016 			"></polygon>
			<polygon class="st0" points="484.905,158.152 491.797,154.058 491.903,154.235 485.011,158.329 484.905,158.152 			"></polygon>
			<polygon class="st0" points="491.779,154.071 497.306,149.021 497.444,149.173 491.919,154.221 491.779,154.071 			"></polygon>
			<polygon class="st0" points="492.055,154.345 497.718,149.296 497.853,149.448 492.189,154.495 492.055,154.345 			"></polygon>
			<polygon class="st0" points="497.704,149.309 502.141,143.507 502.301,143.633 497.864,149.433 497.704,149.309 			"></polygon>
			<polygon class="st0" points="497.292,149.173 501.66,143.102 501.829,143.22 497.458,149.293 497.292,149.173 			"></polygon>
			<polygon class="st0" points="501.652,143.117 504.791,136.635 504.974,136.724 501.834,143.206 501.652,143.117 			"></polygon>
			<polygon class="st0" points="502.129,143.526 505.336,136.839 505.519,136.928 502.313,143.615 502.129,143.526 			"></polygon>
			<polygon class="st0" points="504.579,136.651 506.557,129.692 506.754,129.748 504.777,136.706 504.579,136.651 			"></polygon>
			<polygon class="st0" points="505.331,136.854 507.378,129.896 507.573,129.951 505.526,136.914 505.331,136.854 			"></polygon>
			<polygon class="st0" points="507.372,129.917 507.987,122.615 508.19,122.631 507.578,129.932 507.372,129.917 			"></polygon>
			<polygon class="st0" points="506.419,129.915 507.029,122.751 507.234,122.767 506.621,129.932 506.419,129.915 			"></polygon>
			<polygon class="st0" points="507.578,115.329 507.782,115.318 508.19,122.618 507.985,122.628 507.578,115.329 			"></polygon>
			<polygon class="st0" points="506.35,115.4 506.553,115.381 507.234,122.887 507.031,122.905 506.35,115.4 			"></polygon>
			<polygon class="st0" points="505.672,108.253 505.868,108.201 507.778,115.297 507.582,115.349 505.672,108.253 			"></polygon>
			<polygon class="st0" points="504.441,108.869 504.64,108.811 506.55,115.362 506.352,115.417 504.441,108.869 			"></polygon>
			<polygon class="st0" points="502.334,101.377 502.517,101.29 505.859,108.386 505.676,108.474 502.334,101.377 			"></polygon>
			<polygon class="st0" points="501.377,102.266 501.563,102.178 504.633,108.796 504.448,108.883 501.377,102.266 			"></polygon>
			<polygon class="st0" points="498.248,95.594 498.415,95.477 502.51,101.275 502.341,101.394 498.248,95.594 			"></polygon>
			<polygon class="st0" points="497.292,96.549 497.458,96.43 501.553,102.162 501.387,102.281 497.292,96.549 			"></polygon>
			<polygon class="st0" points="492.734,90.22 492.875,90.071 498.401,95.254 498.26,95.406 492.734,90.22 			"></polygon>
			<polygon class="st0" points="492.39,91.375 492.536,91.235 497.381,96.282 497.235,96.424 492.39,91.375 			"></polygon>
			<polygon class="st0" points="486.879,86.203 486.995,86.034 492.863,90.06 492.748,90.23 486.879,86.203 			"></polygon>
			<polygon class="st0" points="486.402,87.159 486.518,86.989 492.522,91.221 492.406,91.387 486.402,87.159 			"></polygon>
			<polygon class="st0" points="480.072,83.073 480.152,82.886 487.388,86.025 487.306,86.212 480.072,83.073 			"></polygon>
			<polygon class="st0" points="479.798,84.302 479.881,84.114 486.501,86.98 486.417,87.167 479.798,84.302 			"></polygon>
			<polygon class="st0" points="472.786,81.101 472.838,80.902 480.141,82.881 480.086,83.078 472.786,81.101 			"></polygon>
			<polygon class="st0" points="472.648,82.26 472.705,82.063 479.867,84.11 479.813,84.306 472.648,82.26 			"></polygon>
			<polygon class="st0" points="465.639,81.649 465.657,81.446 472.686,82.06 472.666,82.263 465.639,81.649 			"></polygon>
			<polygon class="st0" points="465.641,80.627 465.655,80.421 472.819,80.898 472.805,81.103 465.641,80.627 			"></polygon>
			<polygon class="st0" points="458.065,81.172 465.637,80.421 465.657,80.627 458.083,81.375 458.065,81.172 			"></polygon>
			<polygon class="st0" points="458.203,82.196 465.637,81.446 465.657,81.649 458.221,82.399 458.203,82.196 			"></polygon>
			<polygon class="st0" points="451.294,83.903 458.188,82.198 458.235,82.397 451.345,84.103 451.294,83.903 			"></polygon>
			<polygon class="st0" points="450.947,83.29 458.046,81.176 458.105,81.373 451.007,83.488 450.947,83.29 			"></polygon>
			<polygon class="st0" points="444.448,86.642 450.931,83.298 451.027,83.479 444.541,86.823 444.448,86.642 			"></polygon>
			<polygon class="st0" points="444.856,87.324 451.272,83.913 451.369,84.093 444.953,87.505 444.856,87.324 			"></polygon>
			<polygon class="st0" points="438.772,91.698 444.845,87.331 444.966,87.497 438.892,91.864 438.772,91.698 			"></polygon>
			<polygon class="st0" points="438.429,91.292 444.434,86.652 444.556,86.813 438.554,91.453 438.429,91.292 			"></polygon>
			<polygon class="st0" points="433.571,96.832 438.416,91.306 438.568,91.44 433.723,96.966 433.571,96.832 			"></polygon>
			<polygon class="st0" points="433.776,97.24 438.757,91.713 438.908,91.851 433.928,97.378 433.776,97.24 			"></polygon>
			<polygon class="st0" points="430.19,102.94 433.764,97.255 433.939,97.362 430.363,103.049 430.19,102.94 			"></polygon>
			<polygon class="st0" points="430.145,103.128 433.627,96.716 433.806,96.812 430.327,103.224 430.145,103.128 			"></polygon>
			<path class="st0" d="M464.406,152.066l-5.613-1.301l-5.612-2.261l-5.136-3.49l-4.244-4.243l-3.422-5.068l-2.463-5.405
				l-1.233-5.547l-0.342-6.025l0.959-5.137l1.916-6.022l2.806-4.657l3.965-4.849l0.003-0.008l4.112-3.357l4.997-2.74l5.344-1.506
				l5.748-0.752l5.477,0.41l5.813,1.437l5.069,2.192l4.793,3.149l4.107,4.243l3.422,4.723l2.464,5.476l1.301,5.407l0.479,5.681
				l-0.615,5.48l-1.714,5.545l-2.807,4.929l-3.49,4.381l-4.175,3.561l-4.792,2.943l-5.342,1.918l-5.888,0.958L464.406,152.066
				L464.406,152.066z M442.192,103.031l-2.79,4.623l-1.902,5.987l-0.954,5.098l0.341,5.985l1.224,5.508l2.449,5.374l3.4,5.034
				l4.219,4.216l5.099,3.466l5.579,2.247l5.577,1.293l5.846,0.068l5.85-0.954l5.303-1.904l4.759-2.922l4.149-3.537l3.472-4.353
				l2.787-4.897l1.698-5.505l0.614-5.44l-0.478-5.646l-1.292-5.374l-2.446-5.441l-3.405-4.692l-4.079-4.218l-4.759-3.126
				l-5.033-2.178l-5.784-1.428l-5.44-0.41l-5.712,0.749l-5.302,1.495l-4.964,2.72l-4.078,3.331L442.192,103.031L442.192,103.031z"></path>
			<polygon class="st0" points="464.406,151.521 459.204,150.357 453.382,147.892 448.86,144.67 444.35,140.431 441.063,135.776 
				438.599,130.368 437.093,124.618 436.82,118.866 437.297,113.607 437.299,113.607 437.504,113.627 437.026,118.874 
				437.297,124.586 438.791,130.3 441.242,135.673 444.504,140.295 448.989,144.511 453.486,147.711 459.266,150.159 
				464.434,151.315 470.216,151.588 476.135,150.976 481.433,149.075 485.784,146.354 490.067,142.411 493.4,138.057 
				495.78,133.094 497.345,127.585 497.752,122.213 497.411,116.842 495.846,111.604 493.673,106.64 490.27,102.085 486.327,98.414 
				481.971,95.078 477.01,92.903 471.84,91.406 466.268,91.134 460.548,91.542 455.587,92.832 450.967,95.209 445.929,98.75 
				442.933,102.018 442.784,101.88 445.792,98.596 450.865,95.035 455.511,92.64 460.514,91.339 466.267,90.929 471.874,91.203 
				477.078,92.709 482.076,94.899 486.462,98.259 490.425,101.947 493.848,106.537 496.039,111.534 497.614,116.805 
				497.958,122.214 497.544,127.622 495.973,133.167 493.576,138.165 490.218,142.549 485.906,146.519 481.524,149.258 
				476.179,151.177 470.222,151.794 464.406,151.521 			"></polygon>
			<path class="st0" d="M458.01,139.738l-6.532-5.19l-4.061-7.202l-1.031-8.126l2.365-7.866l4.412-6.564l0.011-0.017l6.222-3.91
				l7.457-1.697l7.971,1.183l6.84,3.906l5.14,5.915l2.674,7.815l-0.359,7.817l-3.034,6.994l-5.45,5.502l-6.892,3.549l-8.382,0.308
				L458.01,139.738L458.01,139.738z M448.941,111.442l-2.344,7.795l1.017,8.044l4.024,7.13l6.469,5.145l7.285,2.393l8.299-0.305
				l6.824-3.514l5.4-5.449l3.001-6.927l0.358-7.74l-2.648-7.742l-5.094-5.857l-6.775-3.871l-7.892-1.171l-7.385,1.682l-6.16,3.867
				L448.941,111.442L448.941,111.442z"></path>
			<path class="st0" d="M458.314,138.971l-5.967-4.988l-3.959-6.789l-1.437-7.918l1.748-8.127l4.375-5.663l6.004-3.744l0.014-0.01
				l7.817-1.491l7.356,1.337l6.479,3.702l4.833,5.912l2.674,7.045v0.017c0,0.01-0.052,7.271-0.052,7.421l0,0
				c-0.007,0.078-0.047,0.165-0.122,0.376l0,0c-0.076,0.199-0.182,0.473-0.308,0.799l0,0c-0.253,0.65-0.593,1.501-0.934,2.35l0,0
				c-0.676,1.697-1.357,3.372-1.357,3.372l0,0l-0.005,0.016l-4.94,5.506l-6.74,3.087l-7.921,0.361L458.314,138.971L458.314,138.971z
				 M453.213,105.641l-4.324,5.599l-1.729,8.042l1.426,7.843l3.922,6.724l5.907,4.94l7.486,2.547l7.843-0.356l6.667-3.054
				l4.886-5.448c0.072-0.172,0.69-1.7,1.319-3.273l0,0c0.663-1.654,1.343-3.378,1.378-3.538l0,0c0.003-0.325,0.05-6.988,0.052-7.392
				l0,0l-2.647-6.978l-4.789-5.857l-6.415-3.668l-7.285-1.324l-7.737,1.479L453.213,105.641L453.213,105.641z"></path>
			<path class="st0" d="M462.306,131.039L459,128.352l-2.221-4.179l-0.001-0.021c0,0-0.115-0.984-0.235-1.988l0,0
				c-0.119-0.996-0.254-2.044-0.271-2.083l0,0c-0.005-0.022-0.005-0.035-0.005-0.045l0,0c0.005-0.2,0.334-1.211,0.671-2.233l0,0
				c0.332-1.012,0.666-1.985,0.666-1.985l0,0l0.004-0.013l2.32-3.402l3.233-2.567l0.02-0.016l4.85-1.188l4.082,0.673l3.822,2.065
				l2.733,3.459l1.549,4.234l-0.412,4.234l-1.551,3.616l-3.353,3.199l-3.919,1.807l-4.184,0.463L462.306,131.039L462.306,131.039z
				 M459.161,128.22l3.242,2.635l4.413,1.32l4.111-0.456l3.858-1.778l3.298-3.146l1.518-3.548l0.409-4.157l-1.522-4.158
				l-2.689-3.401l-3.752-2.027l-4.006-0.659l-4.769,1.165l-3.193,2.537l-2.286,3.354c-0.04,0.119-0.352,1.028-0.661,1.97l0,0
				c-0.324,0.977-0.655,2.036-0.659,2.159l0,0c0.038,0.168,0.155,1.132,0.276,2.112l0,0c0.112,0.923,0.216,1.831,0.234,1.971l0,0
				L459.161,128.22L459.161,128.22z"></path>
			<path class="st0" d="M466.789,131.458l-3.719-1.392l-3.201-2.686l-2.067-3.665l-0.618-3.821l0.723-4.185l2.226-3.313l3.041-1.752
				l0.016-0.009l4.437-0.722l3.875,0.673l3.253,2.115l2.629,2.84l1.449,3.977l-0.052,4.081l-1.601,3.822l-1.918,2.281l-4.186,1.756
				H466.789L466.789,131.458z M460.277,112.55l-2.172,3.238l-0.71,4.106l0.606,3.752l2.031,3.601l3.143,2.637l3.652,1.369h4.207
				l4.105-1.721l1.867-2.222l1.57-3.754l0.053-4.003l-1.419-3.905l-2.588-2.789l-3.195-2.08l-3.802-0.657l-4.366,0.709
				L460.277,112.55L460.277,112.55z"></path>
			<path class="st0" d="M455.204,160.053c-0.923,0.527-8.677,4.965-11.086,6.132l0,0c-0.374,0.176-0.59,0.28-0.723,0.287l0,0
				c-0.024,0-0.091-0.001-0.122-0.081l0,0c-0.033-0.115-0.123-0.973-0.255-2.261l0,0c-0.128-1.282-0.293-2.961-0.453-4.631l0,0
				c-0.287-3-0.564-5.969-0.618-6.542l0,0l-13.86,0.823l3.492-12.937l-13.452-4.108l8.217-11.091l-10.262-8.127l0.064-0.079
				l0.054,0.086l-0.054-0.086l-0.064,0.079l-0.114-0.091l0.686-0.426l10.411-6.458l-6.267-11.815l12.938-1.745l-2.054-12.524
				l12.737,2.156l2.669-11.804l11.605,6.058l6.574-9.452l7.909,9.449l10.169-6.884l3.697,12.12l11.807-2.671l-0.512,12.221
				L510.45,97.5l-4.619,11.19l10.479,5.341l-8.319,8.731l8.526,9.45l-11.305,5.137l3.798,11.604l-11.196,0.718l-0.669,11.967
				l-11.347-3.648l-4.924,11.496l-10.167-7.188l-9.143,9.143L455.204,160.053L455.204,160.053z M461.612,171.106l9.073-9.075
				l10.101,7.141l4.899-11.431l11.27,3.622l0.666-11.884l11.113-0.712l-3.774-11.529l11.214-5.097l-8.465-9.382l8.262-8.67
				l-10.402-5.303l4.592-11.122l-12.039-1.837l0.513-12.138l-11.734,2.652l-3.672-12.035l-10.094,6.832l-7.855-9.385l-6.526,9.379
				l-11.527-6.018l-2.653,11.735l-12.644-2.142l2.04,12.447l-12.855,1.736l6.218,11.726l-10.57,6.558l-0.438,0.272l10.298,8.16
				l-8.162,11.017l13.368,4.08l-3.472,12.855l13.776-0.818l0.01,0.101c0,0.004,0.173,1.855,0.392,4.192l0,0
				c0.223,2.34,0.493,5.157,0.687,7.076l0,0c0.106,1.078,0.196,1.894,0.232,2.143l0,0c0.102-0.033,0.314-0.122,0.575-0.251l0,0
				c0.365-0.175,0.853-0.429,1.421-0.73l0,0c1.138-0.605,2.599-1.413,4.043-2.218l0,0c2.886-1.616,5.693-3.226,5.699-3.23l0,0
				l0.09-0.052L461.612,171.106L461.612,171.106z"></path>
			<path class="st0" d="M455.201,160.05l-11.919,6.475l-1.234-14.071c-1.116,0.148-10.698,1.408-13.227,1.408l0,0
				c-0.187,0-0.338-0.006-0.45-0.023l0,0c-0.105-0.025-0.195-0.011-0.25-0.149l0,0c-0.005-0.015-0.005-0.03-0.005-0.044l0,0
				c0.006-0.457,0.976-3.69,1.95-6.871l0,0c0.871-2.831,1.74-5.58,1.913-6.136l0,0l-13.448-3.799l7.91-10.683l-10.463-8.228
				l0.064-0.083l0.052,0.09l-0.052-0.09l-0.064,0.083l-0.117-0.094l11.711-6.987l-6.159-11.499l12.32-2.36l-2.056-12.541
				l12.435,2.981l2.976-12.633l11.09,7.392l6.678-10.373l7.602,10.276l10.268-6.881l3.493,11.913l11.808-2.978l-0.515,12.12
				l11.912,1.54l-4.519,11.093l10.579,5.956l-8.109,8.421l8.213,9.243l-10.379,4.832l3.798,11.599l-11.907,1.129v11.305
				l-11.304-3.394l-4.924,11.498l-10.167-7.188l-9.143,9.143L455.201,160.05L455.201,160.05z M461.612,171.106l9.073-9.075
				l10.101,7.141l4.896-11.43l11.216,3.365v-11.213l11.837-1.126l-3.774-11.53l10.296-4.788l-8.16-9.181l8.06-8.367l-10.505-5.914
				l4.487-11.015l-11.835-1.53l0.511-12.036l-11.733,2.959l-3.467-11.834l-10.201,6.836l-7.544-10.195l-6.631,10.301l-11.015-7.346
				l-2.958,12.546l-12.336-2.955l2.039,12.434l-12.244,2.346l6.121,11.425l-11.624,6.935l10.503,8.26l-7.853,10.605l13.368,3.776
				l-0.031,0.1c-0.002,0.004-0.975,3.068-1.947,6.236l0,0c-0.952,3.094-1.908,6.331-1.94,6.786l0,0
				c0.018,0.003,0.044,0.011,0.078,0.014l0,0c0.092,0.013,0.238,0.021,0.42,0.021l0,0c1.321,0,4.655-0.354,7.647-0.708l0,0
				c2.996-0.357,5.654-0.71,5.659-0.71l0,0l0.105-0.017l1.225,13.975l11.825-6.422L461.612,171.106L461.612,171.106z"></path>
			<path class="st0" d="M463.33,162.064l-10.633,7.314l-4.179-12.342c-0.828,0.291-11.906,4.179-12.765,4.182l0,0
				c-0.031-0.003-0.078,0.009-0.102-0.058l0,0c0-0.011,0-0.023,0-0.04l0,0c0-0.752,1.069-12.587,1.148-13.449l0,0l-13.756-1.714
				l5.776-12.067l-12.459-6.476l10.079-9.394l-8.64-9.896l0.037-0.033l0.018,0.047l-0.018-0.047l-0.037,0.033l-0.048-0.054
				l0.685-0.269l11.456-4.472l-4.006-12.735l13.018,0.637l0.261-12.669l12.109,4.43l4.765-11.105l10.29,8.056l8.17-8.084
				l6.046,10.711l11.233-4.909l1.428,12.57l12.076-0.478l-2.725,11.905l11.561,4.014l-6.57,10.148l9.313,7.145l-9.751,7.06
				l6.651,10.821l-12.024,2.99l2.082,11.679l-11.582-0.925l-2.621,11.695l-10.685-5.71l-6.924,10.391L463.33,162.064L463.33,162.064
				z M471.989,170.806l6.908-10.365l10.648,5.689l2.616-11.649l11.534,0.923l-2.076-11.641l11.981-2.979l-6.625-10.786l9.715-7.034
				l-9.279-7.12l6.55-10.117l-11.523-4.001l2.716-11.863l-12.039,0.474l-1.421-12.525l-11.192,4.891l-6.026-10.676l-8.137,8.052
				l-10.259-8.029l-4.75,11.072l-12.066-4.416l-0.259,12.633l-12.978-0.635l3.992,12.686l-11.545,4.507l-0.551,0.216l8.662,9.914
				l-10.048,9.364l12.42,6.455l-5.762,12.027l13.714,1.708l-0.005,0.048c0,0.007-0.287,3.181-0.573,6.458l0,0
				c-0.287,3.263-0.574,6.629-0.577,7.03l0,0c0.409,0.001,3.622-1.048,6.704-2.096l0,0c3.094-1.049,6.075-2.097,6.077-2.097l0,0
				l0.047-0.019l4.168,12.309l10.595-7.284L471.989,170.806L471.989,170.806z"></path>
			<path class="st0" d="M463.33,162.064l-10.633,7.314l-4.179-12.342l-12.874,4.187l1.349-14.034
				c-0.873-0.047-12.235-0.633-13.734-1.124l0,0c-0.099-0.038-0.168-0.056-0.19-0.138l0,0l-0.002,0.001c0-0.001,0-0.003,0-0.014l0,0
				c0.007-0.172,0.391-0.977,0.976-2.151l0,0c0.581-1.164,1.357-2.671,2.134-4.16l0,0c1.437-2.755,2.876-5.455,3.08-5.839l0,0
				l-12.515-6.172l9.705-9.051l-8.825-10.032l0.039-0.035l0.018,0.048l-0.018-0.048l-0.039,0.035l-0.05-0.057l12.765-4.73
				l-3.96-12.407l12.525-0.08l0.261-12.677l11.661,5.183l5.216-11.86l9.545,9.273l8.439-8.971l5.594,11.464l11.333-4.888
				l1.264,12.329l12.132-0.779l-2.706,11.805l11.415,3.676l-6.452,10.069l9.302,7.767l-9.492,6.792l6.386,10.565l-11.063,2.857
				l1.622,12.081l-11.895-1.057l-2.054,11.092l-10.478-5.379l-6.924,10.391L463.33,162.064L463.33,162.064z M471.989,170.806
				l6.908-10.365l10.435,5.36l2.045-11.048l11.862,1.052l-1.616-12.043l11.02-2.842l-6.367-10.53l9.462-6.771l-9.271-7.741
				l6.428-10.034l-11.373-3.664l2.696-11.762l-12.097,0.777l-1.258-12.288l-11.291,4.871l-5.576-11.419l-8.404,8.938l-9.515-9.242
				l-5.2,11.817l-11.616-5.162l-0.257,12.624l-12.488,0.08l3.949,12.371l-12.717,4.71l8.843,10.051l-9.671,9.017l12.475,6.152
				l-0.024,0.048c-0.002,0.005-0.872,1.637-1.964,3.71l0,0c-1.092,2.073-2.399,4.585-3.274,6.333l0,0
				c-0.569,1.139-0.957,1.983-0.964,2.103l0,0c0.003,0.002,0.009,0.006,0.019,0.01l0,0c0.018,0.013,0.056,0.027,0.104,0.047l0,0
				c0.099,0.031,0.248,0.066,0.436,0.101l0,0c0.38,0.068,0.924,0.136,1.575,0.206l0,0c1.307,0.141,3.047,0.277,4.788,0.397l0,0
				c3.481,0.243,6.953,0.417,6.959,0.417l0,0l0.054,0.003l-1.342,13.988l12.821-4.172l4.168,12.308l10.595-7.284L471.989,170.806
				L471.989,170.806z M423.169,145.903L423.169,145.903L423.169,145.903L423.169,145.903z"></path>
		</g>
		<path class="st0" d="M511.265,148.972c-0.02-0.266-0.237-0.476-0.509-0.476c-0.268,0-0.487,0.208-0.507,0.472
			c-0.754,0.216-1.305,0.909-1.307,1.734c0.003,0.997,0.809,1.804,1.804,1.804c0.998,0,1.806-0.807,1.806-1.804
			C512.553,149.885,512.009,149.193,511.265,148.972z M511.298,149.707v2.008h-1.177v-2.008H511.298z M511.468,151.715v-2.008h0.504
			c0.22,0.273,0.359,0.615,0.361,0.994c-0.002,0.387-0.148,0.738-0.378,1.014H511.468z M509.523,149.707h0.412v2.008h-0.395
			c-0.231-0.275-0.375-0.626-0.375-1.014C509.165,150.322,509.303,149.98,509.523,149.707z"></path>
		<path class="st0" d="M515.738,141c-0.02-0.267-0.24-0.477-0.51-0.477c-0.268,0-0.484,0.208-0.508,0.47
			c-0.753,0.217-1.307,0.911-1.307,1.735c0,0.997,0.81,1.805,1.806,1.805c0.997,0,1.805-0.808,1.806-1.805
			C517.025,141.911,516.482,141.223,515.738,141z M515.77,141.735v2.005h-1.177v-2.005H515.77z M515.939,143.739v-2.005h0.503
			c0.223,0.271,0.361,0.614,0.362,0.994c-0.001,0.388-0.147,0.737-0.377,1.011H515.939z M513.994,141.735h0.413v2.005h-0.396
			c-0.231-0.274-0.373-0.623-0.379-1.011C513.638,142.348,513.776,142.006,513.994,141.735z"></path>
		<path class="st0" d="M518.602,132.197c-0.02-0.267-0.237-0.478-0.508-0.478c-0.267,0-0.487,0.208-0.505,0.471
			c-0.755,0.218-1.308,0.911-1.309,1.736c0.001,0.997,0.811,1.805,1.805,1.805c0.998,0,1.806-0.808,1.806-1.805
			C519.89,133.11,519.346,132.42,518.602,132.197z M518.634,132.932v2.008h-1.177v-2.008H518.634z M518.806,134.94v-2.008h0.501
			c0.223,0.273,0.361,0.615,0.362,0.994c-0.001,0.388-0.145,0.738-0.376,1.014H518.806z M516.861,132.932h0.411v2.008h-0.396
			c-0.232-0.275-0.375-0.625-0.375-1.014C516.502,133.547,516.64,133.205,516.861,132.932z"></path>
		<path class="st0" d="M520.114,122.576c-0.02-0.266-0.238-0.477-0.509-0.477c-0.268,0-0.487,0.209-0.507,0.473
			c-0.753,0.216-1.307,0.911-1.309,1.734c0.001,0.996,0.807,1.806,1.806,1.806c0.998,0,1.806-0.81,1.806-1.806
			C521.402,123.488,520.859,122.799,520.114,122.576z M520.147,123.313v2.006h-1.177v-2.006H520.147z M520.316,125.319v-2.006h0.503
			c0.221,0.271,0.361,0.615,0.361,0.993c0,0.387-0.146,0.737-0.379,1.013H520.316z M518.372,123.313h0.412v2.006h-0.395
			c-0.232-0.276-0.375-0.625-0.375-1.013C518.014,123.928,518.152,123.583,518.372,123.313z"></path>
		<path class="st0" d="M519.863,112.536c-0.017-0.266-0.237-0.477-0.509-0.477c-0.269,0-0.484,0.208-0.506,0.473
			c-0.755,0.216-1.307,0.911-1.307,1.733c0,0.998,0.808,1.805,1.806,1.805c0.995,0,1.802-0.807,1.804-1.805
			C521.148,113.447,520.609,112.758,519.863,112.536z M519.893,113.271v2.007h-1.174v-2.007H519.893z M520.065,115.278v-2.007h0.505
			c0.22,0.275,0.357,0.617,0.357,0.994c0,0.387-0.143,0.737-0.375,1.013H520.065z M518.12,113.271h0.415v2.007h-0.397
			c-0.234-0.276-0.377-0.626-0.379-1.013C517.762,113.887,517.901,113.545,518.12,113.271z"></path>
		<path class="st0" d="M518.067,103.744c-0.019-0.267-0.237-0.478-0.508-0.478c-0.267,0-0.486,0.21-0.507,0.472
			c-0.756,0.215-1.307,0.91-1.307,1.733c0,0.998,0.805,1.807,1.804,1.807c0.998,0,1.805-0.809,1.805-1.807
			C519.354,104.656,518.81,103.966,518.067,103.744z M518.099,104.479v2.008h-1.178v-2.008H518.099z M518.27,106.487v-2.008h0.503
			c0.224,0.272,0.362,0.614,0.362,0.993c0,0.389-0.147,0.739-0.378,1.015H518.27z M516.326,104.479h0.413v2.008h-0.398
			c-0.232-0.276-0.377-0.625-0.377-1.015C515.964,105.094,516.102,104.751,516.326,104.479z"></path>
		<path class="st0" d="M513.357,94.327c-0.017-0.266-0.235-0.476-0.506-0.476c-0.269,0-0.489,0.209-0.509,0.472
			c-0.755,0.217-1.307,0.91-1.307,1.733c0,0.998,0.808,1.806,1.806,1.806c0.995,0,1.804-0.809,1.804-1.806
			C514.646,95.24,514.103,94.551,513.357,94.327z M513.392,95.063v2.008h-1.178v-2.008H513.392z M513.563,97.071v-2.008h0.503
			c0.222,0.272,0.362,0.615,0.362,0.993c0,0.389-0.147,0.74-0.379,1.015H513.563z M511.619,95.063h0.412v2.008h-0.398
			c-0.23-0.275-0.376-0.625-0.376-1.015C511.257,95.678,511.395,95.335,511.619,95.063z"></path>
		<path class="st0" d="M507.753,86.754c-0.019-0.266-0.238-0.477-0.507-0.477c-0.269,0-0.487,0.208-0.505,0.472
			c-0.757,0.216-1.308,0.911-1.311,1.733c0.003,0.999,0.809,1.807,1.805,1.807c0.998,0,1.808-0.808,1.808-1.807
			C509.042,87.667,508.498,86.975,507.753,86.754z M507.786,87.49v2.007h-1.177V87.49H507.786z M507.956,89.497V87.49h0.504
			c0.222,0.272,0.36,0.614,0.361,0.992c-0.001,0.389-0.145,0.74-0.377,1.016H507.956z M506.015,87.49h0.409v2.007h-0.395
			c-0.232-0.275-0.376-0.626-0.376-1.016C505.652,88.104,505.79,87.762,506.015,87.49z"></path>
		<path class="st0" d="M500.968,78.985c-0.02-0.266-0.24-0.476-0.509-0.476c-0.269,0-0.486,0.206-0.509,0.472
			c-0.754,0.215-1.306,0.91-1.306,1.735c0,0.996,0.807,1.804,1.806,1.804c0.997,0,1.802-0.809,1.802-1.804
			C502.251,79.898,501.712,79.207,500.968,78.985z M500.999,79.721v2.008h-1.177v-2.008H500.999z M501.168,81.729v-2.008h0.504
			c0.223,0.272,0.361,0.614,0.362,0.995c-0.001,0.387-0.148,0.737-0.379,1.013H501.168z M499.224,79.721h0.413v2.008h-0.396
			c-0.232-0.276-0.378-0.626-0.379-1.013C498.864,80.335,499.006,79.993,499.224,79.721z"></path>
		<path class="st0" d="M493.093,73.857c-0.017-0.266-0.237-0.476-0.508-0.476c-0.269,0-0.486,0.208-0.507,0.472
			c-0.755,0.218-1.307,0.91-1.307,1.735c0,0.996,0.808,1.804,1.806,1.804c0.996,0,1.802-0.808,1.806-1.804
			C494.378,74.77,493.838,74.079,493.093,73.857z M493.126,74.593v2.008h-1.177v-2.008H493.126z M493.294,76.601v-2.008h0.504
			c0.223,0.272,0.359,0.616,0.359,0.995c0,0.387-0.143,0.737-0.375,1.013H493.294z M491.352,74.593h0.413v2.008h-0.397
			c-0.233-0.276-0.377-0.626-0.377-1.013C490.991,75.209,491.129,74.865,491.352,74.593z"></path>
		<path class="st0" d="M484.7,70.172c-0.02-0.265-0.238-0.475-0.506-0.475c-0.271,0-0.488,0.207-0.509,0.471
			c-0.754,0.216-1.305,0.911-1.308,1.734c0.003,0.998,0.81,1.804,1.808,1.804c0.995,0,1.803-0.806,1.803-1.804
			C485.988,71.085,485.444,70.396,484.7,70.172z M484.733,70.91v2.005h-1.176V70.91H484.733z M484.905,72.915V70.91h0.504
			c0.218,0.272,0.36,0.614,0.36,0.992c0,0.387-0.145,0.738-0.379,1.013H484.905z M482.96,70.91h0.409v2.005h-0.395
			c-0.23-0.275-0.375-0.626-0.375-1.013C482.6,71.524,482.738,71.182,482.96,70.91z"></path>
		<path class="st0" d="M474.876,67.922c-0.019-0.267-0.239-0.477-0.509-0.477c-0.268,0-0.487,0.208-0.508,0.472
			c-0.752,0.217-1.307,0.911-1.307,1.735c0,0.996,0.808,1.804,1.806,1.804c0.998,0,1.808-0.807,1.808-1.804
			C476.165,68.834,475.621,68.145,474.876,67.922z M474.908,68.657v2.007h-1.179v-2.007H474.908z M475.076,70.664v-2.007h0.505
			c0.222,0.272,0.359,0.616,0.362,0.994c-0.003,0.386-0.148,0.737-0.379,1.012H475.076z M473.135,68.657h0.411v2.007h-0.395
			c-0.233-0.275-0.377-0.626-0.379-1.012C472.774,69.274,472.912,68.929,473.135,68.657z"></path>
		<path class="st0" d="M465.869,67.268c-0.019-0.266-0.236-0.477-0.508-0.477c-0.269,0-0.488,0.208-0.509,0.473
			c-0.755,0.214-1.305,0.909-1.305,1.734c0,0.996,0.808,1.804,1.805,1.804c0.995,0,1.804-0.808,1.804-1.804
			C467.156,68.18,466.615,67.491,465.869,67.268z M465.9,68.003v2.007h-1.177v-2.007H465.9z M466.071,70.011v-2.007h0.504
			c0.223,0.272,0.361,0.616,0.361,0.994c0,0.387-0.147,0.737-0.375,1.013H466.071z M464.127,68.003h0.415v2.007h-0.399
			c-0.231-0.276-0.376-0.626-0.376-1.013C463.766,68.62,463.906,68.275,464.127,68.003z"></path>
		<path class="st0" d="M455.998,68.322c-0.019-0.267-0.239-0.477-0.509-0.477c-0.268,0-0.487,0.208-0.508,0.472
			c-0.755,0.218-1.307,0.91-1.307,1.733c0,0.998,0.808,1.806,1.806,1.806c0.997,0,1.806-0.809,1.806-1.806
			C457.285,69.234,456.742,68.543,455.998,68.322z M456.029,69.057v2.008h-1.179v-2.008H456.029z M456.2,71.065v-2.008h0.502
			c0.223,0.272,0.361,0.614,0.361,0.993c0,0.389-0.145,0.739-0.376,1.015H456.2z M454.254,69.057h0.415v2.008h-0.396
			c-0.233-0.276-0.376-0.626-0.377-1.015C453.896,69.671,454.034,69.329,454.254,69.057z"></path>
		<path class="st0" d="M447.034,71.278c-0.02-0.266-0.238-0.476-0.507-0.476c-0.27,0-0.487,0.209-0.508,0.471
			c-0.754,0.216-1.307,0.911-1.307,1.735c0,0.996,0.807,1.804,1.804,1.804c0.998,0,1.806-0.808,1.806-1.804
			C448.322,72.192,447.778,71.502,447.034,71.278z M447.067,72.014v2.007h-1.176v-2.007H447.067z M447.235,74.021v-2.007h0.505
			c0.22,0.272,0.36,0.615,0.361,0.994c-0.001,0.388-0.148,0.738-0.377,1.013H447.235z M445.292,72.014h0.412v2.007h-0.395
			c-0.231-0.275-0.375-0.625-0.375-1.013C444.934,72.629,445.072,72.286,445.292,72.014z"></path>
		<path class="st0" d="M438.644,75.66c-0.02-0.266-0.239-0.476-0.509-0.476c-0.268,0-0.486,0.208-0.507,0.472
			c-0.754,0.215-1.308,0.908-1.308,1.733c0,0.997,0.807,1.805,1.808,1.805c0.996,0,1.804-0.808,1.804-1.805
			C439.931,76.572,439.387,75.883,438.644,75.66z M438.676,76.396v2.007H437.5v-2.007H438.676z M438.845,78.403v-2.007h0.504
			c0.223,0.271,0.36,0.616,0.362,0.994c-0.001,0.388-0.145,0.738-0.377,1.014H438.845z M436.901,76.396h0.412v2.007h-0.395
			c-0.232-0.275-0.375-0.626-0.375-1.014C436.544,77.012,436.682,76.667,436.901,76.396z"></path>
		<path class="st0" d="M431.78,80.967c-0.02-0.267-0.238-0.478-0.507-0.478c-0.269,0-0.489,0.21-0.507,0.472
			c-0.757,0.216-1.308,0.911-1.311,1.736c0.003,0.996,0.809,1.804,1.806,1.804c1,0,1.806-0.808,1.806-1.804
			C433.067,81.88,432.524,81.189,431.78,80.967z M431.812,81.702v2.007h-1.177v-2.007H431.812z M431.983,83.71v-2.007h0.504
			c0.221,0.272,0.362,0.614,0.362,0.995c0,0.387-0.147,0.737-0.38,1.012H431.983z M430.04,81.702h0.409v2.007h-0.395
			c-0.23-0.275-0.376-0.625-0.376-1.012C429.678,82.317,429.815,81.974,430.04,81.702z"></path>
		<path class="st0" d="M424.423,88.352c-0.017-0.267-0.235-0.478-0.505-0.478c-0.269,0-0.488,0.21-0.507,0.472
			c-0.755,0.216-1.306,0.911-1.309,1.735c0.003,0.998,0.808,1.805,1.805,1.805c0.998,0,1.806-0.807,1.806-1.805
			C425.712,89.264,425.168,88.575,424.423,88.352z M424.457,89.087v2.007h-1.176v-2.007H424.457z M424.629,91.095v-2.007h0.503
			c0.221,0.272,0.36,0.614,0.36,0.994c0,0.389-0.145,0.738-0.378,1.014H424.629z M422.685,89.087h0.409v2.007h-0.395
			c-0.23-0.275-0.376-0.625-0.376-1.014C422.323,89.702,422.46,89.359,422.685,89.087z"></path>
		<path class="st0" d="M419.605,96.456c-0.019-0.267-0.239-0.476-0.509-0.476c-0.268,0-0.487,0.208-0.509,0.47
			c-0.751,0.218-1.307,0.911-1.307,1.735c0,0.996,0.808,1.805,1.806,1.805c0.998,0,1.805-0.809,1.805-1.805
			C420.892,97.368,420.349,96.679,419.605,96.456z M419.638,97.191v2.007h-1.179v-2.007H419.638z M419.806,99.199v-2.007h0.505
			c0.222,0.275,0.361,0.616,0.361,0.994c0,0.388-0.147,0.737-0.377,1.013H419.806z M417.862,97.191h0.413v2.007h-0.396
			c-0.23-0.276-0.373-0.625-0.373-1.013C417.505,97.807,417.643,97.466,417.862,97.191z"></path>
		<path class="st0" d="M416.223,105.547c-0.018-0.266-0.236-0.476-0.507-0.476c-0.267,0-0.488,0.208-0.509,0.47
			c-0.754,0.218-1.307,0.911-1.307,1.734c0,0.998,0.807,1.806,1.806,1.806c0.996,0,1.806-0.808,1.806-1.806
			C417.512,106.459,416.969,105.768,416.223,105.547z M416.254,106.283v2.007h-1.174v-2.007H416.254z M416.425,108.29v-2.007h0.504
			c0.221,0.272,0.36,0.614,0.363,0.992c-0.003,0.389-0.148,0.74-0.381,1.015H416.425z M414.482,106.283h0.412v2.007h-0.395
			c-0.232-0.276-0.376-0.626-0.376-1.015C414.123,106.897,414.26,106.555,414.482,106.283z"></path>
		<path class="st0" d="M414.079,115.617c-0.017-0.266-0.236-0.477-0.507-0.477c-0.268,0-0.488,0.206-0.507,0.472
			c-0.755,0.215-1.307,0.91-1.307,1.735c0,0.996,0.808,1.805,1.804,1.805c0.996,0,1.805-0.809,1.805-1.805
			C415.367,116.529,414.824,115.838,414.079,115.617z M414.112,116.352v2.007h-1.177v-2.007H414.112z M414.284,118.359v-2.007h0.502
			c0.223,0.272,0.359,0.615,0.361,0.994c-0.001,0.387-0.145,0.737-0.376,1.012H414.284z M412.339,116.352h0.411v2.007h-0.396
			c-0.232-0.275-0.377-0.625-0.377-1.012C411.977,116.967,412.115,116.624,412.339,116.352z"></path>
		<path class="st0" d="M414.185,126.081c-0.018-0.266-0.237-0.476-0.51-0.476c-0.268,0-0.484,0.209-0.505,0.474
			c-0.755,0.215-1.308,0.91-1.308,1.733c0,0.998,0.808,1.807,1.806,1.807c0.995,0,1.805-0.809,1.806-1.807
			C415.474,126.994,414.931,126.305,414.185,126.081z M414.215,126.819v2.008h-1.176v-2.008H414.215z M414.387,128.827v-2.008h0.503
			c0.224,0.272,0.36,0.614,0.364,0.992c-0.003,0.388-0.148,0.738-0.378,1.015H414.387z M412.443,126.819h0.413v2.008h-0.396
			c-0.233-0.277-0.375-0.627-0.376-1.015C412.085,127.433,412.223,127.091,412.443,126.819z"></path>
		<path class="st0" d="M416.233,136.113c-0.02-0.266-0.237-0.477-0.51-0.477c-0.267,0-0.487,0.21-0.505,0.472
			c-0.757,0.218-1.307,0.911-1.307,1.735c0,0.996,0.807,1.804,1.804,1.804c0.997,0,1.805-0.808,1.805-1.804
			C417.519,137.025,416.977,136.337,416.233,136.113z M416.264,136.849v2.007h-1.177v-2.007H416.264z M416.435,138.856v-2.007h0.502
			c0.225,0.271,0.362,0.617,0.362,0.994c0,0.388-0.145,0.737-0.376,1.013H416.435z M414.492,136.849h0.411v2.007h-0.396
			c-0.231-0.276-0.377-0.625-0.377-1.013C414.13,137.466,414.269,137.12,414.492,136.849z"></path>
		<path class="st0" d="M420.328,145.53c-0.021-0.267-0.238-0.478-0.509-0.478c-0.27,0-0.486,0.209-0.509,0.47
			c-0.754,0.218-1.306,0.911-1.306,1.735c0,0.998,0.808,1.806,1.806,1.806c0.996,0,1.802-0.808,1.805-1.806
			C421.611,146.443,421.072,145.752,420.328,145.53z M420.359,146.265v2.008h-1.177v-2.008H420.359z M420.528,148.273v-2.008h0.503
			c0.223,0.273,0.362,0.615,0.364,0.993c-0.002,0.389-0.147,0.74-0.378,1.015H420.528z M418.584,146.265h0.413v2.008h-0.396
			c-0.231-0.275-0.376-0.626-0.377-1.015C418.225,146.88,418.364,146.538,418.584,146.265z"></path>
		<path class="st0" d="M426.36,154.305c-0.017-0.267-0.236-0.478-0.505-0.478c-0.268,0-0.488,0.209-0.507,0.474
			c-0.755,0.216-1.307,0.91-1.307,1.733c0,0.998,0.806,1.806,1.803,1.806c0.998,0,1.806-0.808,1.806-1.806
			C427.649,155.217,427.105,154.527,426.36,154.305z M426.394,155.039v2.008h-1.177v-2.008H426.394z M426.566,157.047v-2.008h0.503
			c0.221,0.274,0.36,0.615,0.36,0.994c0,0.387-0.146,0.74-0.376,1.014H426.566z M424.62,155.039h0.413v2.008h-0.397
			c-0.23-0.274-0.377-0.626-0.377-1.014C424.259,155.654,424.397,155.313,424.62,155.039z"></path>
		<path class="st0" d="M434.472,161.469c-0.019-0.265-0.239-0.479-0.51-0.479c-0.269,0-0.484,0.212-0.507,0.473
			c-0.753,0.218-1.306,0.911-1.308,1.735c0.002,0.997,0.81,1.806,1.808,1.806c0.997,0,1.804-0.809,1.805-1.806
			C435.758,162.379,435.216,161.692,434.472,161.469z M434.503,162.205v2.007h-1.174v-2.007H434.503z M434.672,164.212v-2.007h0.504
			c0.223,0.271,0.361,0.616,0.362,0.994c-0.001,0.389-0.146,0.738-0.377,1.014H434.672z M432.73,162.205h0.412v2.007h-0.395
			c-0.233-0.275-0.376-0.624-0.376-1.014C432.371,162.821,432.509,162.476,432.73,162.205z"></path>
		<path class="st0" d="M442.943,166.792c-0.021-0.267-0.24-0.477-0.508-0.477c-0.269,0-0.488,0.207-0.508,0.471
			c-0.755,0.215-1.305,0.91-1.305,1.735c0,0.997,0.808,1.805,1.804,1.805c0.998,0,1.805-0.808,1.805-1.805
			C444.23,167.704,443.687,167.015,442.943,166.792z M442.974,167.528v2.006h-1.177v-2.006H442.974z M443.146,169.534v-2.006h0.503
			c0.223,0.271,0.359,0.614,0.361,0.994c-0.001,0.386-0.147,0.734-0.375,1.012H443.146z M441.201,167.528h0.412v2.006h-0.397
			c-0.232-0.278-0.376-0.626-0.376-1.012C440.84,168.141,440.979,167.799,441.201,167.528z"></path>
		<path class="st0" d="M453.178,170.271c-0.02-0.267-0.237-0.476-0.509-0.476c-0.27,0-0.484,0.208-0.508,0.472
			c-0.753,0.214-1.307,0.907-1.307,1.734c0,0.996,0.809,1.804,1.805,1.804c0.997,0,1.805-0.808,1.806-1.804
			C454.464,171.184,453.922,170.494,453.178,170.271z M453.211,171.005v2.009h-1.18v-2.009H453.211z M453.38,173.014v-2.009h0.502
			c0.223,0.274,0.361,0.616,0.361,0.996c0,0.387-0.145,0.738-0.375,1.014H453.38z M451.436,171.005h0.413v2.009h-0.396
			c-0.233-0.275-0.376-0.626-0.379-1.014C451.077,171.621,451.217,171.279,451.436,171.005z"></path>
		<path class="st0" d="M461.728,171.898c-0.018-0.265-0.237-0.476-0.508-0.476c-0.27,0-0.489,0.209-0.507,0.472
			c-0.754,0.216-1.308,0.91-1.308,1.734c0,0.995,0.808,1.804,1.805,1.804c0.995,0,1.806-0.809,1.807-1.804
			C463.017,172.811,462.473,172.119,461.728,171.898z M461.763,172.634v2.008h-1.181v-2.008H461.763z M461.93,174.641v-2.008h0.504
			c0.221,0.273,0.359,0.615,0.362,0.994c-0.003,0.386-0.148,0.738-0.378,1.014H461.93z M459.987,172.634h0.413v2.008h-0.397
			c-0.233-0.275-0.376-0.628-0.376-1.014C459.627,173.248,459.768,172.906,459.987,172.634z"></path>
		<path class="st0" d="M472.73,171.935c-0.018-0.267-0.237-0.477-0.509-0.477c-0.269,0-0.486,0.207-0.505,0.473
			c-0.757,0.216-1.308,0.91-1.308,1.733c0,0.998,0.808,1.806,1.805,1.806c0.996,0,1.804-0.808,1.805-1.806
			C474.015,172.848,473.474,172.158,472.73,171.935z M472.76,172.672v2.005h-1.177v-2.005H472.76z M472.932,174.677v-2.005h0.503
			c0.223,0.271,0.361,0.615,0.361,0.992c0,0.389-0.147,0.74-0.375,1.013H472.932z M470.987,172.672h0.411v2.005h-0.393
			c-0.235-0.273-0.377-0.624-0.379-1.013C470.628,173.287,470.768,172.943,470.987,172.672z"></path>
		<path class="st0" d="M481.992,169.851c-0.018-0.264-0.236-0.476-0.507-0.476c-0.269,0-0.488,0.21-0.505,0.47
			c-0.755,0.219-1.308,0.91-1.309,1.735c0.001,0.998,0.809,1.806,1.803,1.806c0.998,0,1.808-0.808,1.808-1.806
			C483.282,170.765,482.738,170.076,481.992,169.851z M482.026,170.587v2.007h-1.177v-2.007H482.026z M482.195,172.594v-2.007h0.504
			c0.222,0.274,0.36,0.616,0.362,0.994c-0.003,0.389-0.145,0.738-0.377,1.014H482.195z M480.251,170.587h0.413v2.007h-0.396
			c-0.232-0.275-0.377-0.624-0.377-1.014C479.892,171.202,480.03,170.86,480.251,170.587z"></path>
		<path class="st0" d="M490.967,166.792c-0.018-0.267-0.238-0.477-0.507-0.477c-0.271,0-0.488,0.207-0.505,0.471
			c-0.755,0.215-1.309,0.91-1.311,1.735c0.001,0.997,0.809,1.805,1.805,1.805c1,0,1.807-0.808,1.807-1.805
			C492.257,167.704,491.713,167.015,490.967,166.792z M491.002,167.528v2.006h-1.179v-2.006H491.002z M491.17,169.534v-2.006h0.504
			c0.222,0.271,0.361,0.614,0.362,0.994c-0.001,0.386-0.148,0.734-0.377,1.012H491.17z M489.227,167.528h0.412v2.006h-0.395
			c-0.232-0.278-0.376-0.626-0.376-1.012C488.867,168.141,489.004,167.799,489.227,167.528z"></path>
		<path class="st0" d="M498.21,162.491c-0.019-0.264-0.237-0.477-0.508-0.477c-0.27,0-0.484,0.21-0.505,0.474
			c-0.755,0.216-1.309,0.91-1.309,1.732c0,0.997,0.808,1.808,1.806,1.808c0.998,0,1.806-0.811,1.806-1.808
			C499.5,163.404,498.956,162.715,498.21,162.491z M498.243,163.229v2.005h-1.178v-2.005H498.243z M498.412,165.235v-2.005h0.503
			c0.224,0.27,0.362,0.615,0.363,0.991c-0.001,0.389-0.148,0.738-0.377,1.014H498.412z M496.47,163.229h0.412v2.005h-0.397
			c-0.231-0.276-0.374-0.625-0.376-1.014C496.112,163.844,496.25,163.499,496.47,163.229z"></path>
		<path class="st0" d="M505.58,156.351c-0.02-0.267-0.237-0.478-0.509-0.478c-0.268,0-0.486,0.212-0.507,0.474
			c-0.755,0.216-1.306,0.91-1.306,1.735c0,0.995,0.808,1.802,1.804,1.802c0.996,0,1.804-0.807,1.806-1.802
			C506.866,157.263,506.327,156.573,505.58,156.351z M505.611,157.087v2.007h-1.177v-2.007H505.611z M505.783,159.094v-2.007h0.501
			c0.224,0.273,0.362,0.615,0.362,0.996c0,0.387-0.145,0.736-0.376,1.011H505.783z M503.837,157.087h0.413v2.007h-0.397
			c-0.232-0.275-0.375-0.624-0.375-1.011C503.479,157.702,503.619,157.36,503.837,157.087z"></path>
	</g>
</g>
</svg>
